<svg width="52" height="52" viewBox="0 0 52 52" fill="none" xmlns="http://www.w3.org/2000/svg">
<g filter="url(#filter0_d_5849_26157)">
<circle cx="26" cy="22" r="16" fill="#DA9E21"/>
<circle cx="26" cy="22" r="17" stroke="#747067" stroke-width="2"/>
</g>
<g filter="url(#filter1_d_5849_26157)">
<circle cx="26" cy="22" r="16" fill="#42CFDB"/>
<circle cx="26" cy="22" r="15" stroke="#F8F8F8" stroke-width="2"/>
</g>
<g clip-path="url(#clip0_5849_26157)">
<path d="M26.3319 37.9997C35.1685 37.9997 42.3319 30.8363 42.3319 21.9999C42.3319 13.1634 35.1685 6 26.3319 6C17.4954 6 10.332 13.1634 10.332 21.9999C10.332 30.8363 17.4954 37.9997 26.3319 37.9997Z" fill="url(#paint0_linear_5849_26157)"/>
<path d="M27.3984 11.3335C27.7486 11.3335 28.1042 11.3335 28.4651 11.3335" stroke="#F3F3F3" stroke-opacity="0.5" stroke-width="1.5" stroke-miterlimit="10" stroke-linecap="round" stroke-linejoin="round"/>
<path d="M15.6641 22.0002C15.6641 16.8451 19.2939 12.5218 24.1974 11.3335" stroke="#F3F3F3" stroke-opacity="0.5" stroke-width="1.5" stroke-miterlimit="10" stroke-linecap="round" stroke-linejoin="round"/>
</g>
<defs>
<filter id="filter0_d_5849_26157" x="0" y="0" width="52" height="52" filterUnits="userSpaceOnUse" color-interpolation-filters="sRGB">
<feFlood flood-opacity="0" result="BackgroundImageFix"/>
<feColorMatrix in="SourceAlpha" type="matrix" values="0 0 0 0 0 0 0 0 0 0 0 0 0 0 0 0 0 0 127 0" result="hardAlpha"/>
<feOffset dy="4"/>
<feGaussianBlur stdDeviation="4"/>
<feColorMatrix type="matrix" values="0 0 0 0 0.454367 0 0 0 0 0.44026 0 0 0 0 0.405633 0 0 0 0.1 0"/>
<feBlend mode="normal" in2="BackgroundImageFix" result="effect1_dropShadow_5849_26157"/>
<feBlend mode="normal" in="SourceGraphic" in2="effect1_dropShadow_5849_26157" result="shape"/>
</filter>
<filter id="filter1_d_5849_26157" x="2" y="2" width="48" height="48" filterUnits="userSpaceOnUse" color-interpolation-filters="sRGB">
<feFlood flood-opacity="0" result="BackgroundImageFix"/>
<feColorMatrix in="SourceAlpha" type="matrix" values="0 0 0 0 0 0 0 0 0 0 0 0 0 0 0 0 0 0 127 0" result="hardAlpha"/>
<feOffset dy="4"/>
<feGaussianBlur stdDeviation="4"/>
<feColorMatrix type="matrix" values="0 0 0 0 0.454367 0 0 0 0 0.44026 0 0 0 0 0.405633 0 0 0 0.1 0"/>
<feBlend mode="normal" in2="BackgroundImageFix" result="effect1_dropShadow_5849_26157"/>
<feBlend mode="normal" in="SourceGraphic" in2="effect1_dropShadow_5849_26157" result="shape"/>
</filter>
<linearGradient id="paint0_linear_5849_26157" x1="18.332" y1="8.13333" x2="24.732" y2="22" gradientUnits="userSpaceOnUse">
<stop stop-color="white" stop-opacity="0.25"/>
<stop offset="1" stop-color="white" stop-opacity="0"/>
</linearGradient>
<clipPath id="clip0_5849_26157">
<rect width="32" height="32" fill="white" transform="translate(10.332 6)"/>
</clipPath>
</defs>
</svg>
