<svg width="20" height="21" viewBox="0 0 20 21" fill="none" xmlns="http://www.w3.org/2000/svg">
<path fill-rule="evenodd" clip-rule="evenodd" d="M10.2963 9.78572C10.8967 9.78572 11.4836 9.60767 11.9829 9.2741C12.4821 8.94054 12.8712 8.46642 13.101 7.91172C13.3307 7.35701 13.3908 6.74663 13.2737 6.15776C13.1566 5.56889 12.8674 5.02798 12.4429 4.60343C12.0183 4.17888 11.4774 3.88975 10.8886 3.77262C10.2997 3.65548 9.6893 3.7156 9.1346 3.94537C8.57989 4.17513 8.10578 4.56423 7.77221 5.06345C7.43864 5.56267 7.2606 6.14959 7.2606 6.75C7.2606 7.55512 7.58044 8.32727 8.14974 8.89657C8.71905 9.46588 9.4912 9.78572 10.2963 9.78572ZM6.25842 13.2862C4.86404 13.9737 4.04632 14.8642 4.04632 15.8571C4.04632 16.6461 4.68591 17.2857 5.47489 17.2857H15.1177C15.9067 17.2857 16.5463 16.6461 16.5463 15.8571C16.5463 14.8642 15.7286 13.9737 14.3342 13.2862C12.9803 12.6186 11.3471 12.2857 10.2963 12.2857C9.24554 12.2857 7.61237 12.6186 6.25842 13.2862ZM10.2963 10.5C11.038 10.5 11.763 10.2801 12.3797 9.86801C12.9964 9.45596 13.477 8.87029 13.7609 8.18506C14.0447 7.49984 14.119 6.74584 13.9743 6.01841C13.8296 5.29098 13.4724 4.6228 12.948 4.09835C12.4235 3.5739 11.7553 3.21675 11.0279 3.07206C10.3005 2.92736 9.54648 3.00162 8.86125 3.28545C8.17603 3.56928 7.59036 4.04993 7.17831 4.66661C6.76625 5.2833 6.54632 6.00832 6.54632 6.75C6.54632 7.74456 6.94141 8.69839 7.64467 9.40165C8.34793 10.1049 9.30175 10.5 10.2963 10.5ZM10.2963 11.5714C7.97199 11.5714 3.33203 13.0071 3.33203 15.8571C3.33203 17.0406 4.29142 18 5.47489 18H15.1177C16.3012 18 17.2606 17.0406 17.2606 15.8571C17.2606 13.0071 12.6206 11.5714 10.2963 11.5714Z" fill="#747067"/>
</svg>
