<svg class="svg-icon" style="width: 1em; height: 1em;vertical-align: middle;fill: currentColor;overflow: hidden;" viewBox="0 0 1024 1024" version="1.1" xmlns="http://www.w3.org/2000/svg"><path d="M832 752H192c0-3.936 0.64-7.696 0.896-11.552A15.808 15.808 0 0 1 192 736a15.536 15.536 0 0 1 1.792-7.008A175.12 175.12 0 0 1 272 605.2V464a239.872 239.872 0 0 1 160.208-226.128 79.808 79.808 0 0 1 159.584 0A239.872 239.872 0 0 1 752 464v141.2a175.12 175.12 0 0 1 78.208 123.792A15.536 15.536 0 0 1 832 736a15.808 15.808 0 0 1-0.896 4.448c0.256 3.856 0.896 7.616 0.896 11.552z m-112-128.848V464c0-6.4-0.384-12.8-0.976-19.2-0.16-1.904-0.416-3.76-0.64-5.648q-0.816-6.88-2.08-13.632c-0.352-1.872-0.672-3.744-1.072-5.6a207.936 207.936 0 0 0-4.32-16.784l-0.32-1.184a209.808 209.808 0 0 0-6.224-17.024c-0.752-1.792-1.6-3.536-2.336-5.296a223.68 223.68 0 0 0-5.536-11.504c-0.944-1.808-1.872-3.616-2.864-5.392q-3.68-6.576-7.808-12.8c-0.56-0.864-1.056-1.76-1.6-2.608-3.2-4.8-6.736-9.376-10.352-13.856-1.36-1.68-2.8-3.296-4.208-4.944-2.528-2.928-5.12-5.792-7.808-8.576-1.6-1.6-3.2-3.328-4.8-4.944a190.88 190.88 0 0 0-9.6-8.72c-1.392-1.2-2.752-2.448-4.176-3.616q-6.288-5.12-12.992-9.712c-1.968-1.376-4-2.64-6.032-3.936-3.04-1.952-6.128-3.84-9.28-5.632a178.128 178.128 0 0 0-17.52-8.912 206.032 206.032 0 0 0-37.376-12.688V240a48 48 0 0 0-96 0v21.792a206.032 206.032 0 0 0-37.376 12.688 166.08 166.08 0 0 0-17.52 8.912c-3.2 1.792-6.24 3.68-9.28 5.632-2.032 1.296-4.064 2.56-6.032 3.936-4.448 3.072-8.8 6.304-12.992 9.712-1.424 1.168-2.784 2.416-4.176 3.616-3.28 2.816-6.496 5.696-9.6 8.72-1.6 1.6-3.2 3.28-4.8 4.944-2.688 2.784-5.28 5.648-7.808 8.576-1.408 1.6-2.832 3.2-4.208 4.944-3.616 4.48-7.104 9.072-10.352 13.856-0.576 0.848-1.072 1.744-1.6 2.608q-4.128 6.256-7.808 12.8c-0.992 1.776-1.92 3.584-2.864 5.392a223.68 223.68 0 0 0-5.536 11.504c-0.784 1.76-1.6 3.504-2.32 5.296-2.304 5.584-4.432 11.2-6.24 17.024-0.112 0.384-0.192 0.8-0.32 1.184-1.68 5.488-3.088 11.104-4.32 16.784-0.4 1.856-0.72 3.728-1.072 5.6q-1.28 6.752-2.08 13.632c-0.224 1.888-0.48 3.744-0.64 5.648-0.752 6.4-1.136 12.8-1.136 19.2v159.152A144 144 0 0 0 227.952 720h568.096A144 144 0 0 0 720 623.152zM672 464a343.392 343.392 0 0 0-48-80 412.112 412.112 0 0 0-64-64 145.088 145.088 0 0 1 80 48 170.16 170.16 0 0 1 32 96zM512 832a48 48 0 0 0 48-48h32a80 80 0 0 1-160 0h32a48 48 0 0 0 48 48z" fill="#333333" /></svg>