<?xml version="1.0" encoding="UTF-8" standalone="no"?>
<!DOCTYPE svg PUBLIC "-//W3C//DTD SVG 1.1//EN" "http://www.w3.org/Graphics/SVG/1.1/DTD/svg11.dtd">
<svg width="100%" height="100%" viewBox="0 0 1416 1002" version="1.1" xmlns="http://www.w3.org/2000/svg" xmlns:xlink="http://www.w3.org/1999/xlink" xml:space="preserve" xmlns:serif="http://www.serif.com/" style="fill-rule:evenodd;clip-rule:evenodd;stroke-linecap:round;stroke-linejoin:round;stroke-miterlimit:1.5;">
    <g transform="matrix(4.16667,0,0,4.16667,-3316.15,-1961.98)">
        <g transform="matrix(1,0,0,1,0,400)">
            <g transform="matrix(7.38323e-17,1.20577,-1.20577,7.38323e-17,1154.14,-592.149)">
                <path d="M649.5,148.71L695.285,102.924C702.017,96.192 712.948,96.192 719.68,102.924L744.076,127.32C750.808,134.052 750.808,144.983 744.076,151.715L698.29,197.5L744.076,243.285C750.808,250.017 750.808,260.948 744.076,267.68L719.68,292.076C712.948,298.808 702.017,298.808 695.285,292.076L649.5,246.29L603.715,292.076C596.983,298.808 586.052,298.808 579.32,292.076L554.924,267.68C548.192,260.948 548.192,250.017 554.924,243.285L600.71,197.5L554.924,151.715C548.192,144.983 548.192,134.052 554.924,127.32L579.32,102.924C586.052,96.192 596.983,96.192 603.715,102.924L649.5,148.71Z" style="fill:url(#_Linear1);"/>
            </g>
            <g transform="matrix(-0.884567,-1.08328e-16,1.08328e-16,-0.884567,1537.53,365.702)">
                <path d="M649.5,148.71L695.285,102.924C702.017,96.192 712.948,96.192 719.68,102.924L744.076,127.32C750.808,134.052 750.808,144.983 744.076,151.715L698.29,197.5L744.076,243.285C750.808,250.017 750.808,260.948 744.076,267.68L719.68,292.076C712.948,298.808 702.017,298.808 695.285,292.076L649.5,246.29L603.715,292.076C596.983,298.808 586.052,298.808 579.32,292.076L554.924,267.68C548.192,260.948 548.192,250.017 554.924,243.285L600.71,197.5L554.924,151.715C548.192,144.983 548.192,134.052 554.924,127.32L579.32,102.924C586.052,96.192 596.983,96.192 603.715,102.924L649.5,148.71Z" style="fill:url(#_Linear2);"/>
            </g>
            <g transform="matrix(1.17064,0,0,1.17064,258.169,-40.2015)">
                <path d="M649.5,148.71L695.285,102.924C702.017,96.192 712.948,96.192 719.68,102.924L744.076,127.32C750.808,134.052 750.808,144.983 744.076,151.715L698.29,197.5L744.076,243.285C750.808,250.017 750.808,260.948 744.076,267.68L719.68,292.076C712.948,298.808 702.017,298.808 695.285,292.076L649.5,246.29L603.715,292.076C596.983,298.808 586.052,298.808 579.32,292.076L554.924,267.68C548.192,260.948 548.192,250.017 554.924,243.285L600.71,197.5L554.924,151.715C548.192,144.983 548.192,134.052 554.924,127.32L579.32,102.924C586.052,96.192 596.983,96.192 603.715,102.924L649.5,148.71Z" style="fill:none;stroke:rgb(0,255,255);stroke-opacity:0.26;stroke-width:0.85px;"/>
            </g>
        </g>
    </g>
    <defs>
        <linearGradient id="_Linear1" x1="0" y1="0" x2="1" y2="0" gradientUnits="userSpaceOnUse" gradientTransform="matrix(199.249,0,0,199.249,549.875,197.5)"><stop offset="0" style="stop-color:rgb(6,6,22);stop-opacity:1"/><stop offset="1" style="stop-color:rgb(4,16,26);stop-opacity:1"/></linearGradient>
        <linearGradient id="_Linear2" x1="0" y1="0" x2="1" y2="0" gradientUnits="userSpaceOnUse" gradientTransform="matrix(199.249,0,0,199.249,549.875,197.5)"><stop offset="0" style="stop-color:rgb(5,53,67);stop-opacity:1"/><stop offset="1" style="stop-color:rgb(7,11,31);stop-opacity:1"/></linearGradient>
    </defs>
</svg>
