<svg width="20" height="21" viewBox="0 0 20 21" fill="none" xmlns="http://www.w3.org/2000/svg">
<path d="M16.4599 6.12064L12.3923 2.053C12.2923 1.953 12.1511 1.91182 12.0158 1.93241C11.9893 1.92653 11.9658 1.92358 11.9364 1.92358H5.1011C4.65404 1.92358 4.24228 2.103 3.94816 2.39711C3.65404 2.68829 3.46875 3.09711 3.46875 3.54417V17.3648C3.46875 17.8118 3.65404 18.2206 3.94816 18.5118C4.24228 18.803 4.65404 18.9853 5.1011 18.9853H14.9923C15.4393 18.9853 15.8511 18.8059 16.1452 18.5118C16.4393 18.2206 16.6246 17.8118 16.6246 17.3648V6.46476C16.6276 6.32653 16.5599 6.203 16.4599 6.12064ZM12.5217 3.42947L15.1217 6.02947H13.2746C13.0629 6.02947 12.8776 5.94711 12.7423 5.81182C12.607 5.67652 12.5246 5.49711 12.5246 5.29417V3.42947H12.5217ZM15.5246 17.8824C15.3893 18.0177 15.2011 18.1001 14.9923 18.1001H5.1011C4.88934 18.1001 4.70404 18.0177 4.56875 17.8824C4.43346 17.7471 4.3511 17.5677 4.3511 17.3648V3.54123C4.3511 3.33829 4.43346 3.15888 4.56875 3.02358C4.70404 2.88829 4.89228 2.80594 5.1011 2.80594H11.6393V5.29123C11.6393 5.73829 11.8246 6.14711 12.1187 6.43829C12.4129 6.72947 12.8246 6.91182 13.2717 6.91182H15.7423V17.3648C15.7423 17.5677 15.6629 17.7471 15.5246 17.8824Z" fill="#747067"/>
<path d="M6.47243 7.21756H8.89007C9.13419 7.21756 9.33125 7.0205 9.33125 6.77638C9.33125 6.53226 9.13419 6.33521 8.89007 6.33521H6.47243C6.22831 6.33521 6.03125 6.53226 6.03125 6.77638C6.03125 7.0205 6.23125 7.21756 6.47243 7.21756Z" fill="#747067"/>
<path d="M13.5254 9.27637H6.47243C6.22831 9.27637 6.03125 9.47343 6.03125 9.71754C6.03125 9.96166 6.22831 10.1587 6.47243 10.1587H13.5224C13.7665 10.1587 13.9636 9.96166 13.9636 9.71754C13.9636 9.47343 13.7665 9.27637 13.5254 9.27637Z" fill="#747067"/>
<path d="M13.5254 12.2175H6.47243C6.22831 12.2175 6.03125 12.4146 6.03125 12.6587C6.03125 12.9028 6.22831 13.0999 6.47243 13.0999H13.5224C13.7665 13.0999 13.9636 12.9028 13.9636 12.6587C13.9636 12.4146 13.7665 12.2175 13.5254 12.2175Z" fill="#747067"/>
<path d="M13.5254 15.1587H6.47243C6.22831 15.1587 6.03125 15.3558 6.03125 15.5999C6.03125 15.844 6.22831 16.041 6.47243 16.041H13.5224C13.7665 16.041 13.9636 15.844 13.9636 15.5999C13.9636 15.3558 13.7665 15.1587 13.5254 15.1587Z" fill="#747067"/>
</svg>
