<svg width="25" height="24" viewBox="0 0 25 24" fill="none" xmlns="http://www.w3.org/2000/svg">
<path d="M12.5529 17.4154C12.6022 17.4368 12.6585 17.4475 12.7149 17.4477C12.7184 17.4477 12.7219 17.4512 12.7254 17.4512C12.729 17.4512 12.7325 17.4477 12.736 17.4477C12.7924 17.4479 12.8453 17.4374 12.8982 17.4162C12.9511 17.3951 13.0005 17.3634 13.0393 17.3209L17.468 12.9306C17.6411 12.7575 17.6418 12.4777 17.4696 12.3038C17.2973 12.1298 17.019 12.1291 16.846 12.3023L13.1695 15.94L13.1902 4.39639C13.1908 4.15201 12.994 3.9532 12.7509 3.95261C12.5078 3.95203 12.3101 4.14989 12.3095 4.39426L12.2887 15.9343L8.96572 12.4704C8.79351 12.2965 8.5152 12.2958 8.34215 12.4689C8.16911 12.642 8.16843 12.9218 8.34064 13.0958L12.4122 17.3159C12.4544 17.3585 12.5001 17.3905 12.5529 17.4154Z" fill="#996D01"/>
<path fill-rule="evenodd" clip-rule="evenodd" d="M3.50303 20.4961C3.50174 20.22 3.72455 19.9951 4.00069 19.9938L22.0005 19.9096C22.2766 19.9083 22.5015 20.1311 22.5028 20.4072C22.5041 20.6834 22.2813 20.9083 22.0052 20.9096L4.00537 20.9938C3.72923 20.995 3.50432 20.7722 3.50303 20.4961Z" fill="#996D01"/>
</svg>
