<svg width="40" height="41" viewBox="0 0 40 41" fill="none" xmlns="http://www.w3.org/2000/svg">
<g clip-path="url(#clip0_6942_57026)">
<path d="M8.61117 15.204C7.49805 14.3237 6.42076 13.4718 5.34346 12.62C4.79536 12.1863 4.24454 11.7568 3.69914 11.3195C3.20172 10.9214 3.21388 10.3253 3.74577 9.97912C6.82154 7.97636 9.90203 5.98214 12.9798 3.98436C13.336 3.75289 13.6516 3.83123 13.972 4.08692C15.6041 5.3853 17.2458 6.67014 18.8745 7.97351C19.0895 8.14515 19.2233 8.16367 19.4483 7.98348C21.0575 6.69222 22.6795 5.41948 24.2975 4.14034C24.7997 3.74363 24.972 3.7358 25.5106 4.0855C28.5033 6.0263 31.4959 7.96852 34.4899 9.90647C34.7501 10.0753 34.9684 10.2619 34.9833 10.6144C34.9975 10.9442 34.8393 11.165 34.598 11.3544C33.076 12.5509 31.5588 13.7539 30.0408 14.9554C29.9435 15.0323 29.8489 15.1142 29.734 15.209C29.8381 15.2973 29.9212 15.3721 30.0084 15.4411C31.527 16.6419 33.047 17.842 34.5656 19.0428C35.1671 19.5186 35.1401 20.0884 34.494 20.5079C32.8402 21.5812 31.1871 22.6574 29.5272 23.7207C29.3109 23.8596 29.221 24.0042 29.2231 24.2812C29.2359 26.2598 29.2231 28.2376 29.2352 30.2161C29.2379 30.6307 29.0899 30.902 28.7581 31.1164C25.7418 33.0636 22.7282 35.0151 19.7214 36.978C19.326 37.2365 18.9948 37.2258 18.6022 36.9694C15.6055 35.0122 12.6014 33.0657 9.59452 31.1271C9.25052 30.9049 9.09845 30.6307 9.10116 30.2019C9.11467 28.2355 9.10048 26.269 9.114 24.3026C9.11603 24.0134 9.02141 23.8596 8.79568 23.715C7.16486 22.6702 5.54149 21.6111 3.91541 20.5577C3.16657 20.0727 3.13819 19.5421 3.83295 18.993C5.334 17.8064 6.83505 16.6191 8.3361 15.4319C8.41653 15.3685 8.49493 15.3015 8.61117 15.2054V15.204ZM10.5691 24.8745C10.5515 24.9493 10.5373 24.9806 10.5373 25.0127C10.536 26.5881 10.5299 28.1635 10.5454 29.7382C10.5468 29.8629 10.6691 30.031 10.78 30.1029C13.4813 31.8656 16.1901 33.6156 18.8908 35.3783C19.1063 35.5193 19.2557 35.503 19.4612 35.3691C22.1537 33.6134 24.8497 31.8649 27.5497 30.1221C27.7335 30.0039 27.8105 29.8843 27.8085 29.6492C27.7964 28.1571 27.8024 26.6643 27.8018 25.1722C27.8018 25.0846 27.7916 24.997 27.7835 24.8602C26.9691 25.388 26.1973 25.8887 25.4248 26.3887C25.0085 26.6579 24.7713 26.6486 24.3779 26.3395C23.5764 25.7092 22.7775 25.0753 21.9773 24.4436C21.044 23.7065 20.1107 22.9693 19.1719 22.2286C19.0448 22.3262 18.936 22.4074 18.8293 22.4921C17.2018 23.7777 15.5757 25.0639 13.947 26.3481C13.5725 26.6429 13.3204 26.6536 12.9278 26.4015C12.6014 26.1928 12.2769 25.9806 11.9519 25.7698C11.4963 25.4749 11.0408 25.1807 10.5684 24.8752L10.5691 24.8745ZM11.2024 15.2004C11.2666 15.251 11.2916 15.2745 11.32 15.293C13.8719 16.9482 16.426 18.5991 18.9719 20.2643C19.1645 20.3904 19.2753 20.3184 19.4199 20.2244C21.7989 18.6803 24.1792 17.1369 26.5589 15.5928C26.7434 15.4732 26.9259 15.3493 27.1192 15.2203C27.0698 15.1741 27.0482 15.1456 27.0198 15.1278C24.4685 13.4711 21.9152 11.8188 19.3679 10.155C19.1814 10.0332 19.0651 10.0995 18.9158 10.1971C17.4167 11.1728 15.9157 12.145 14.4153 13.1179C13.3556 13.8052 12.2952 14.4917 11.2017 15.2004H11.2024ZM20.4479 9.08457C23.1114 10.8117 25.7195 12.5054 28.3336 14.1876C28.4073 14.2353 28.5722 14.2083 28.6513 14.1506C29.0115 13.8885 29.3569 13.6036 29.707 13.3266C30.7917 12.4683 31.8771 11.6094 32.9794 10.7369C32.9064 10.6778 32.8577 10.6301 32.8023 10.5938C30.2598 8.94426 27.7146 7.29832 25.1768 5.64098C24.9929 5.52062 24.8862 5.56478 24.7395 5.68229C23.5926 6.59607 22.4416 7.50344 21.292 8.41295C21.0251 8.62448 20.7588 8.83672 20.4472 9.08457H20.4479ZM5.3536 19.6895C5.41375 19.738 5.44754 19.7693 5.48539 19.7942C8.04616 21.4565 10.609 23.116 13.1657 24.7855C13.3542 24.9087 13.4604 24.8446 13.6063 24.7285C14.96 23.6523 16.3185 22.5826 17.6749 21.51C17.7405 21.458 17.7986 21.396 17.8736 21.3255C15.25 19.6247 12.6493 17.941 10.0534 16.2495C9.88176 16.1377 9.77835 16.1854 9.63913 16.2958C8.38476 17.2943 7.12499 18.2865 5.86724 19.2807C5.69896 19.4139 5.53135 19.5478 5.3536 19.6888V19.6895ZM32.9855 19.7031C32.8794 19.6126 32.7962 19.5378 32.7091 19.4687C31.3891 18.4246 30.0658 17.3862 28.7527 16.3328C28.5533 16.1726 28.4147 16.1576 28.1958 16.3015C26.1669 17.6319 24.1292 18.9488 22.0943 20.2693C21.5536 20.6197 21.0136 20.9708 20.454 21.3333C20.55 21.4138 20.6189 21.4736 20.6898 21.5299C22.0273 22.5883 23.3689 23.6402 24.699 24.71C24.9064 24.8766 25.045 24.8645 25.2559 24.7264C27.209 23.4472 29.1703 22.1802 31.1289 20.9096C31.7399 20.5136 32.3502 20.1161 32.9868 19.7031H32.9855ZM13.3725 5.50994C10.6826 7.25488 8.02454 8.97987 5.33873 10.722C6.81613 11.8921 8.24554 13.0182 9.66549 14.1577C9.84932 14.3051 9.96353 14.224 10.1109 14.1278C12.6142 12.5025 15.1195 10.8794 17.6235 9.25479C17.6965 9.20707 17.7655 9.15294 17.8743 9.0746C16.3604 7.87593 14.8749 6.69934 13.3725 5.50994Z" fill="#996D01"/>
</g>
<defs>
<clipPath id="clip0_6942_57026">
<rect width="31.6667" height="33.3333" fill="white" transform="translate(3.33203 3.8335)"/>
</clipPath>
</defs>
</svg>
