<svg width="40" height="41" viewBox="0 0 40 41" fill="none" xmlns="http://www.w3.org/2000/svg">
<path d="M17.3711 12.4458L17.3772 12.4519L17.3711 12.4458Z" fill="#996D01"/>
<path d="M37.8073 20.93C37.7467 20.724 37.6618 20.5179 37.5285 20.3361C37.3346 20.0573 37.0437 19.8452 36.7588 19.7422C36.4679 19.6331 36.1952 19.6088 35.9406 19.6088H35.9224C34.4315 19.6149 32.9406 19.6209 31.4558 19.6209C29.9891 19.6209 28.5285 19.6209 27.0618 19.6209C26.7891 19.6209 26.5164 19.6209 26.2437 19.6209C26.4194 19.4876 26.5952 19.3543 26.7649 19.2028C27.8497 18.2634 28.6921 17.1846 29.2558 15.9725C29.8194 14.7603 30.1043 13.427 30.0982 12.0028C30.0982 11.8694 30.0982 11.7361 30.0921 11.6028C30.0497 10.4573 29.7891 9.36034 29.3406 8.32398C28.7649 6.99671 27.9103 5.84519 26.8012 4.91186C25.3467 3.68155 23.6315 2.94822 21.7346 2.74822C21.5285 2.72398 21.3164 2.69974 21.0921 2.67549L21.0376 2.66943H20.983C20.9043 2.66943 20.8255 2.66943 20.7467 2.66943H20.6073L20.3103 2.7664C19.9709 2.86337 19.6679 3.06337 19.4497 3.34216C19.2255 3.63307 19.0982 3.99671 19.0982 4.3664C19.0982 4.59065 19.0982 4.81489 19.0982 5.03307C19.0982 5.47549 19.0982 5.92398 19.0982 6.3664C19.0982 8.99671 19.0982 11.6209 19.0982 14.2513C18.9709 14.0816 18.8376 13.9119 18.6982 13.7482C18.5709 13.6028 18.4437 13.4634 18.3164 13.324C18.0255 13.0088 17.7103 12.724 17.377 12.4513C15.8134 11.1725 13.9285 10.4755 11.8497 10.4149C11.8437 10.4149 11.8437 10.4149 11.8376 10.4149H11.8315C11.7224 10.4088 11.6073 10.4028 11.4921 10.4028H11.3709H11.3649C11.2982 10.4028 11.2315 10.4088 11.1649 10.4088H11.0982H11.0861C9.94063 10.4513 8.84366 10.7119 7.80729 11.1603C6.53456 11.7119 5.43153 12.5179 4.52244 13.5543H4.51638L4.39517 13.6937L4.38911 13.6997L4.37699 13.7119C3.84972 14.3361 3.40729 15.0149 3.0679 15.7422L3.06184 15.7482L3.04366 15.7846L3.00729 15.8573L3.00123 15.8634C2.58911 16.7664 2.3285 17.7361 2.22547 18.7603C2.21335 18.9058 2.19517 19.0513 2.17093 19.2028L2.14062 19.2937V19.5058C2.14062 19.5846 2.14062 19.6634 2.14062 19.7422V19.8876L2.23759 20.1785C2.33456 20.5179 2.53456 20.8209 2.81335 21.0391C3.10426 21.2634 3.4679 21.3906 3.83759 21.3846C4.09214 21.3846 4.35275 21.3846 4.60729 21.3846C5.01941 21.3846 5.42547 21.3846 5.83759 21.3846C8.46184 21.3846 11.0921 21.3846 13.7164 21.3846C12.9406 21.9482 12.2437 22.6149 11.6679 23.4028C10.777 24.6028 10.2012 25.9664 9.95881 27.4391C9.87396 27.9361 9.83759 28.4391 9.83759 28.9422C9.83759 29.4634 9.88002 29.9785 9.96487 30.4937C10.2437 32.1725 10.9527 33.6876 12.0376 34.9785C12.7649 35.8452 13.6315 36.5482 14.6012 37.0997C15.7467 37.7482 16.9891 38.124 18.274 38.2634C18.4497 38.2816 18.6194 38.2997 18.7952 38.3179L18.8437 38.324H18.9285C19.0315 38.324 19.1346 38.324 19.2315 38.324H19.2982H19.4255L19.5467 38.2876C19.7527 38.227 19.9588 38.1422 20.1406 38.0088C20.4194 37.8149 20.6315 37.524 20.7346 37.2331C20.8315 36.9664 20.8618 36.7119 20.8618 36.4694V36.4331V36.3967C20.8558 34.8937 20.8497 33.3906 20.8497 31.8876C20.8497 30.4331 20.8497 28.9846 20.8497 27.53C20.8497 27.2573 20.8497 26.9906 20.8497 26.7179C21.4134 27.4997 22.0861 28.2028 22.88 28.7846C24.08 29.6755 25.4437 30.2513 26.9164 30.4937C27.4194 30.5785 27.9164 30.6149 28.4194 30.6149C28.9346 30.6149 29.4558 30.5725 29.9709 30.4876C31.6497 30.2088 33.1649 29.4997 34.4558 28.4088C35.3224 27.6816 36.0255 26.8149 36.577 25.8452C37.2255 24.6997 37.6012 23.4573 37.7406 22.1725C37.7588 21.9967 37.777 21.827 37.7952 21.6513L37.8012 21.6028V21.5543C37.8012 21.4209 37.8012 21.2816 37.8012 21.1482V21.0209L37.8073 20.93ZM21.5406 4.54822C23.0982 4.71186 24.4315 5.28155 25.6255 6.29368C26.5224 7.05731 27.2012 7.96034 27.6679 9.03913C28.0315 9.88155 28.2376 10.7482 28.274 11.6573C28.28 11.7725 28.28 11.8876 28.28 11.9967C28.28 13.1846 28.0497 14.2391 27.6073 15.2028C27.1588 16.1603 26.4921 17.0331 25.577 17.8209C24.577 18.6816 23.4255 19.2028 22.1103 19.4452C21.7649 19.5119 21.3467 19.524 20.8921 19.5543L20.9164 19.0937C20.9164 19.027 20.9285 18.924 20.9285 18.7725C20.9285 14.6331 20.9285 10.4997 20.9285 6.36034C20.9285 5.91792 20.9285 5.46943 20.9285 5.02701C20.9285 4.84519 20.9285 4.65731 20.9285 4.47549C20.9346 4.47549 20.9346 4.47549 20.9406 4.47549C21.1285 4.49974 21.3285 4.52398 21.5406 4.54822ZM4.63153 19.5785C4.41335 19.5785 4.19517 19.5785 3.97699 19.5785C3.97699 19.5725 3.97699 19.5725 3.97699 19.5664L3.98305 19.5179C4.00729 19.3361 4.02547 19.1543 4.04972 18.9603C4.13456 18.124 4.34669 17.3543 4.67396 16.6331L4.70426 16.5664L4.71032 16.5603L4.72244 16.53C4.99517 15.9482 5.34669 15.4088 5.77699 14.8997L5.79517 14.8755L5.8982 14.7603L5.89214 14.7664C6.63153 13.924 7.50426 13.2876 8.53456 12.8391C9.37699 12.4755 10.2437 12.2694 11.1527 12.2331H11.2134H11.2194H11.2255C11.2861 12.2331 11.3467 12.227 11.4073 12.227H11.4861C11.5709 12.227 11.6558 12.227 11.7467 12.2331H11.7588H11.7649C13.4921 12.2937 14.9406 12.827 16.2194 13.8694L16.2255 13.8755C16.4921 14.0876 16.7406 14.324 16.983 14.5725L16.9891 14.5785C17.0982 14.6937 17.2073 14.8149 17.3164 14.9361C18.177 15.93 18.6982 17.0876 18.9406 18.4028C18.9709 18.5664 18.9891 18.7422 19.0073 18.93L19.0134 18.9664L19.0194 19.0028C19.0315 19.0755 19.0437 19.1361 19.0497 19.1906L19.1043 19.5664H19.074V19.627L18.5891 19.6028C18.5224 19.6028 18.4194 19.5906 18.2679 19.5906C14.1285 19.5906 9.99517 19.5906 5.85578 19.5906C5.44972 19.5785 5.04366 19.5785 4.63153 19.5785ZM18.4982 36.4694C17.4315 36.3543 16.4497 36.0513 15.5285 35.53C14.7285 35.0755 14.0437 34.5179 13.4618 33.8209C12.5709 32.7543 12.0194 31.5664 11.7891 30.2028C11.7164 29.7846 11.6861 29.3664 11.6861 28.9482C11.6861 28.5482 11.7164 28.1422 11.783 27.7422C11.9831 26.5422 12.4376 25.4694 13.1588 24.4876C13.88 23.5119 14.7588 22.7725 15.8376 22.2209C16.7103 21.7785 17.6194 21.524 18.6012 21.4391L18.6376 21.4331L19.08 21.3906V21.4088V21.4209C19.08 21.53 19.08 21.6391 19.08 21.7543C19.08 23.6816 19.074 25.6149 19.074 27.5422C19.074 28.9967 19.074 30.4452 19.074 31.8997C19.074 33.4028 19.074 34.9058 19.0861 36.4088V36.4149V36.4209C19.0861 36.4573 19.0861 36.4816 19.08 36.5058C19.0437 36.5058 19.0073 36.5058 18.977 36.5058C18.8073 36.5058 18.6558 36.4876 18.4982 36.4694ZM35.0376 24.9725C34.5831 25.7725 34.0194 26.4573 33.3285 27.0391C32.2618 27.93 31.074 28.4876 29.7103 28.7179C29.2921 28.7906 28.874 28.8209 28.4618 28.8209C28.0558 28.8209 27.6558 28.7906 27.2497 28.724C26.0497 28.524 24.977 28.0694 23.9952 27.3482C23.0255 26.627 22.28 25.7482 21.7285 24.6694C21.2861 23.7967 21.0315 22.8876 20.9467 21.9058C20.9346 21.7361 20.9164 21.5785 20.8982 21.427C21.0194 21.427 21.1406 21.427 21.2618 21.427C23.1891 21.427 25.1224 21.4331 27.0497 21.4331C28.5164 21.4331 29.977 21.4331 31.4437 21.4331C32.9346 21.4331 34.4315 21.4331 35.9224 21.4209H35.9346C35.9649 21.4209 35.9952 21.4209 36.0194 21.427C36.0194 21.4634 36.0194 21.4997 36.0194 21.53C36.0012 21.6876 35.9891 21.8452 35.9709 21.9967C35.8558 23.0694 35.5588 24.0573 35.0376 24.9725Z" fill="#996D01"/>
</svg>
