<svg width="24" height="24" viewBox="0 0 24 24" fill="none" xmlns="http://www.w3.org/2000/svg">
<path d="M16.3631 3.56348C14.5812 3.56348 13.0176 4.36348 11.9631 5.59984C10.9085 4.36348 9.30852 3.56348 7.56307 3.56348C4.36307 3.56348 1.78125 6.14529 1.78125 9.34529C1.78125 10.8726 2.4358 12.3271 3.38125 13.6726C4.79943 15.7089 6.87216 17.4907 8.61761 18.7635C10.3631 20.0362 11.7449 20.8362 11.7449 20.8362L11.9631 20.9453L12.1812 20.8362C12.1812 20.8362 14.654 19.3817 17.1267 17.2726C18.3631 16.218 19.5994 14.9453 20.5449 13.6362C21.4903 12.2907 22.1449 10.8362 22.1449 9.34529C22.1449 6.14529 19.5631 3.56348 16.3631 3.56348ZM19.854 13.1271C18.5085 15.018 16.5085 16.7635 14.7994 18.0362C13.9631 18.6907 13.1994 19.1998 12.6176 19.5635C12.3267 19.7453 12.1085 19.8908 11.9631 19.9635C11.9631 19.9635 11.9631 19.9635 11.9267 19.9635C11.2722 19.5998 9.01761 18.1817 6.90852 16.2907C5.78125 15.2726 4.69034 14.1453 3.9267 12.9453C3.1267 11.7453 2.65398 10.5089 2.65398 9.30893C2.65398 7.92711 3.19943 6.72711 4.10852 5.81802C5.01761 4.90893 6.21761 4.36348 7.59943 4.36348C9.27216 4.36348 10.7631 5.19984 11.6722 6.50893L12.0358 7.01802L12.3994 6.50893C13.3085 5.2362 14.7631 4.36348 16.4722 4.36348C17.854 4.36348 19.054 4.90893 19.9631 5.81802C20.8722 6.72711 21.4176 7.92711 21.4176 9.30893C21.3085 10.5817 20.7267 11.8907 19.854 13.1271Z" fill="#996D01"/>
</svg>
