<svg width="40" height="41" viewBox="0 0 40 41" fill="none" xmlns="http://www.w3.org/2000/svg">
<path d="M14.9096 14.6198C15.5059 13.7743 16.2431 12.9833 17.1257 12.3371C22.8163 8.16554 30.7608 11.4885 31.9684 18.3761C32.051 18.8466 31.9222 19.4345 32.1639 19.7755C32.398 20.1058 32.9928 20.1687 33.411 20.3838C35.7574 21.5877 37.0203 24.1175 36.5779 26.7025C36.1377 29.2731 34.0156 31.3119 31.4214 31.6513C31.1472 31.6869 30.8691 31.7127 30.5926 31.7127C23.7875 31.7157 16.9818 31.7218 10.1767 31.7127C6.8689 31.7082 4.11567 29.4337 3.46183 26.1979C2.8186 23.0181 4.61949 19.7724 7.6788 18.6239C7.95382 18.5208 8.09702 18.386 8.18036 18.0958C8.82965 15.8388 10.8737 14.2698 13.1709 14.3046C13.7368 14.3137 14.3013 14.5046 14.9096 14.6198ZM20.3517 30.1997C23.7345 30.1997 27.1166 30.1974 30.4994 30.2012C31.2048 30.202 31.8783 30.0747 32.517 29.7754C34.2838 28.9496 35.3694 27.0389 35.1285 25.1834C34.8588 23.1075 33.4064 21.5506 31.401 21.1869C30.7729 21.0733 30.5964 20.8415 30.5926 20.2157C30.5888 19.7247 30.5827 19.2285 30.5085 18.7443C30.0069 15.4789 27.5174 12.8591 24.2997 12.184C21.0586 11.5044 17.7765 12.8818 15.9696 15.6805C15.5574 16.3192 15.3331 16.3881 14.6202 16.0964C12.367 15.1736 9.87669 16.5411 9.46605 18.9421C9.38272 19.4292 9.13649 19.6861 8.66675 19.8224C6.48175 20.4573 4.93997 22.412 4.85284 24.622C4.73086 27.726 7.09013 30.1914 10.204 30.1982C13.5861 30.2058 16.9689 30.1997 20.3517 30.1997Z" fill="#996D01"/>
</svg>
