<svg width="41" height="41" viewBox="0 0 41 41" fill="none" xmlns="http://www.w3.org/2000/svg">
<g clip-path="url(#clip0_6930_59784)">
<path d="M14.691 17.4338C16.2425 17.4338 17.5031 16.1732 17.5031 14.6217C17.5031 13.0702 16.2425 11.8096 14.691 11.8096C13.1395 11.8096 11.8789 13.0702 11.8789 14.6217C11.8789 16.1732 13.1395 17.4338 14.691 17.4338ZM14.691 13.1914C15.4789 13.1914 16.1213 13.8338 16.1213 14.6217C16.1213 15.4096 15.4789 16.052 14.691 16.052C13.9031 16.052 13.2607 15.4096 13.2607 14.6217C13.2607 13.8338 13.9031 13.1914 14.691 13.1914Z" fill="#996D01"/>
<path d="M8.72997 28.8208H15.8694H31.5906C31.8391 28.8208 32.0694 28.6874 32.1906 28.4693C32.2512 28.3662 32.2815 28.245 32.2815 28.1299C32.2815 28.0087 32.2512 27.8814 32.1785 27.7723L24.3239 14.8571C24.1906 14.639 23.9542 14.542 23.736 14.542C23.5178 14.542 23.2815 14.639 23.1482 14.8571L18.1542 23.0571L15.2694 18.6632C15.136 18.4571 14.9057 18.3662 14.6936 18.3662C14.4815 18.3662 14.2512 18.4571 14.1178 18.6632L8.15421 27.7481C8.08149 27.8632 8.03906 27.9965 8.03906 28.1238C8.03906 28.239 8.06937 28.3481 8.12391 28.4511C8.24512 28.6814 8.47543 28.8208 8.72997 28.8208ZM15.4875 27.439H10.0148L14.6997 20.3056L17.3663 24.3662L15.4875 27.439ZM23.73 16.5481L30.3603 27.445H17.0936L18.7542 24.7117L23.73 16.5481Z" fill="#996D01"/>
<path d="M35.5978 7.27588H5.40381C4.24624 7.27588 3.30078 8.21527 3.30078 9.37891V31.6335C3.30078 32.791 4.24018 33.7365 5.40381 33.7365H35.5978C36.7553 33.7365 37.6947 32.7971 37.7008 31.6335V9.37285C37.6947 8.21527 36.7553 7.27588 35.5978 7.27588ZM4.85836 9.37285C4.85836 9.07588 5.10078 8.82739 5.40381 8.82739H35.5978C35.8947 8.82739 36.1432 9.06982 36.1432 9.37285V31.6274C36.1432 31.9244 35.9008 32.1728 35.5978 32.1728H5.40381C5.10684 32.1728 4.85836 31.9304 4.85836 31.6274V9.37285Z" fill="#996D01"/>
</g>
<defs>
<clipPath id="clip0_6930_59784">
<rect width="40" height="40" fill="white" transform="translate(0.5 0.5)"/>
</clipPath>
</defs>
</svg>
