<?xml version="1.0" encoding="iso-8859-1"?><!-- Generator: Adobe Illustrator 19.2.1, SVG Export Plug-In . SVG Version: 6.00 Build 0)  --><svg xmlns="http://www.w3.org/2000/svg" xmlns:xlink="http://www.w3.org/1999/xlink" version="1.1" id="Layer_1" x="0px" y="0px" viewBox="0 0 80 80" style="enable-background:new 0 0 80 80;" xml:space="preserve" width="80" height="80">
<g>
	<path style="fill:#FFC49C;" d="M40,33.5c-5.238,0-9.5-4.262-9.5-9.5V12c0-5.238,4.262-9.5,9.5-9.5s9.5,4.262,9.5,9.5v12   C49.5,29.238,45.238,33.5,40,33.5z"/>
	<g>
		<path style="fill:#A16A4A;" d="M40,3c4.963,0,9,4.037,9,9v12c0,4.963-4.037,9-9,9s-9-4.037-9-9V12C31,7.037,35.037,3,40,3 M40,2    c-5.523,0-10,4.477-10,10v12c0,5.523,4.477,10,10,10s10-4.477,10-10V12C50,6.477,45.523,2,40,2L40,2z"/>
	</g>
</g>
<g>
	<path style="fill:#8BB7F0;" d="M40,77.5c-5.238,0-9.5-4.262-9.5-9.5V56c0-5.238,4.262-9.5,9.5-9.5s9.5,4.262,9.5,9.5v12   C49.5,73.238,45.238,77.5,40,77.5z"/>
	<g>
		<path style="fill:#4E7AB5;" d="M40,47c4.963,0,9,4.037,9,9v12c0,4.963-4.037,9-9,9s-9-4.037-9-9V56C31,51.037,35.037,47,40,47     M40,46c-5.523,0-10,4.477-10,10v12c0,5.523,4.477,10,10,10s10-4.477,10-10V56C50,50.477,45.523,46,40,46L40,46z"/>
	</g>
</g>
<g>
	<path style="fill:#BAE0BD;" d="M56,49.5c-5.238,0-9.5-4.262-9.5-9.5s4.262-9.5,9.5-9.5h12c5.238,0,9.5,4.262,9.5,9.5   s-4.262,9.5-9.5,9.5H56z"/>
	<g>
		<path style="fill:#5E9C76;" d="M68,31c4.963,0,9,4.037,9,9s-4.037,9-9,9H56c-4.963,0-9-4.037-9-9s4.037-9,9-9H68 M68,30H56    c-5.523,0-10,4.477-10,10s4.477,10,10,10h12c5.523,0,10-4.477,10-10S73.523,30,68,30L68,30z"/>
	</g>
</g>
<g>
	<path style="fill:#F2D5F2;" d="M12,49.5c-5.238,0-9.5-4.262-9.5-9.5s4.262-9.5,9.5-9.5h12c5.238,0,9.5,4.262,9.5,9.5   s-4.262,9.5-9.5,9.5H12z"/>
	<g>
		<path style="fill:#A175A0;" d="M24,31c4.963,0,9,4.037,9,9s-4.037,9-9,9H12c-4.963,0-9-4.037-9-9s4.037-9,9-9H24 M24,30H12    C6.477,30,2,34.477,2,40s4.477,10,10,10h12c5.523,0,10-4.477,10-10S29.523,30,24,30L24,30z"/>
	</g>
</g>
<g>
	<path style="fill:#FFEEA3;" d="M51.515,37.985c-2.538,0-4.924-0.988-6.718-2.782s-2.782-4.18-2.782-6.718s0.988-4.924,2.782-6.718   l8.485-8.485C55.076,11.488,57.462,10.5,60,10.5s4.924,0.988,6.718,2.782c3.704,3.704,3.704,9.731,0,13.436l-8.485,8.485   C56.438,36.997,54.053,37.985,51.515,37.985z"/>
	<g>
		<path style="fill:#BA9B48;" d="M60,11c2.404,0,4.664,0.936,6.364,2.636C68.064,15.336,69,17.596,69,20s-0.936,4.664-2.636,6.364    l-8.485,8.485c-1.7,1.7-3.96,2.636-6.364,2.636s-4.664-0.936-6.364-2.636s-2.636-3.96-2.636-6.364s0.936-4.664,2.636-6.364    l8.485-8.485C55.336,11.936,57.596,11,60,11 M60,10c-2.559,0-5.118,0.976-7.071,2.929l-8.485,8.485    c-3.905,3.905-3.905,10.237,0,14.142c1.953,1.953,4.512,2.929,7.071,2.929s5.118-0.976,7.071-2.929l8.485-8.485    c3.905-3.905,3.905-10.237,0-14.142C65.118,10.976,62.559,10,60,10L60,10z"/>
	</g>
</g>
<g>
	<path style="fill:#DCD5F2;" d="M20,69.5c-2.538,0-4.924-0.988-6.718-2.782c-3.704-3.704-3.704-9.731,0-13.436l8.485-8.485   c1.794-1.794,4.18-2.782,6.718-2.782s4.924,0.988,6.718,2.782s2.782,4.18,2.782,6.718s-0.988,4.924-2.782,6.718l-8.485,8.485   C24.924,68.512,22.538,69.5,20,69.5z"/>
	<g>
		<path style="fill:#8B75A1;" d="M28.485,42.515c2.404,0,4.664,0.936,6.364,2.636s2.636,3.96,2.636,6.364s-0.936,4.664-2.636,6.364    l-8.485,8.485C24.664,68.064,22.404,69,20,69s-4.664-0.936-6.364-2.636S11,62.404,11,60s0.936-4.664,2.636-6.364l8.485-8.485    C23.821,43.451,26.081,42.515,28.485,42.515 M28.485,41.515c-2.559,0-5.118,0.976-7.071,2.929l-8.485,8.485    c-3.905,3.905-3.905,10.237,0,14.142C14.882,69.024,17.441,70,20,70s5.118-0.976,7.071-2.929l8.485-8.485    c3.905-3.905,3.905-10.237,0-14.142C33.604,42.491,31.044,41.515,28.485,41.515L28.485,41.515z"/>
	</g>
</g>
<g>
	<path style="fill:#C2E8FF;" d="M60,69.5c-2.538,0-4.924-0.988-6.718-2.782l-8.485-8.485c-1.794-1.794-2.782-4.18-2.782-6.718   s0.988-4.924,2.782-6.718s4.18-2.782,6.718-2.782s4.924,0.988,6.718,2.782l8.485,8.485c3.704,3.704,3.704,9.731,0,13.436   C64.924,68.512,62.538,69.5,60,69.5z"/>
	<g>
		<path style="fill:#7496C4;" d="M51.515,42.515c2.404,0,4.664,0.936,6.364,2.636l8.485,8.485C68.064,55.336,69,57.596,69,60    s-0.936,4.664-2.636,6.364S62.404,69,60,69s-4.664-0.936-6.364-2.636l-8.485-8.485c-1.7-1.7-2.636-3.96-2.636-6.364    s0.936-4.664,2.636-6.364S49.111,42.515,51.515,42.515 M51.515,41.515c-2.559,0-5.118,0.976-7.071,2.929    c-3.905,3.905-3.905,10.237,0,14.142l8.485,8.485C54.882,69.024,57.441,70,60,70s5.118-0.976,7.071-2.929    c3.905-3.905,3.905-10.237,0-14.142l-8.485-8.485C56.633,42.491,54.074,41.515,51.515,41.515L51.515,41.515z"/>
	</g>
</g>
<g>
	<path style="fill:#F78F8F;" d="M28.485,37.985c-2.538,0-4.924-0.988-6.718-2.782l-8.485-8.485c-3.704-3.704-3.704-9.731,0-13.436   C15.076,11.488,17.462,10.5,20,10.5s4.924,0.988,6.718,2.782l8.485,8.485c1.794,1.794,2.782,4.18,2.782,6.718   s-0.988,4.924-2.782,6.718S31.023,37.985,28.485,37.985z"/>
	<g>
		<path style="fill:#C74343;" d="M20,11c2.404,0,4.664,0.936,6.364,2.636l8.485,8.485c1.7,1.7,2.636,3.96,2.636,6.364    s-0.936,4.664-2.636,6.364s-3.96,2.636-6.364,2.636s-4.664-0.936-6.364-2.636l-8.485-8.485C11.936,24.664,11,22.404,11,20    s0.936-4.664,2.636-6.364C15.336,11.936,17.596,11,20,11 M20,10c-2.559,0-5.118,0.976-7.071,2.929    c-3.905,3.905-3.905,10.237,0,14.142l8.485,8.485c1.953,1.953,4.512,2.929,7.071,2.929s5.118-0.976,7.071-2.929    c3.905-3.905,3.905-10.237,0-14.142l-8.485-8.485C25.118,10.976,22.559,10,20,10L20,10z"/>
	</g>
</g>
<g>
	<path style="fill:#FFDE9C;" d="M43.136,32.968c-1.963-3.677-1.307-8.23,1.659-11.204l4.705-4.697V24   C49.5,28.021,46.902,31.652,43.136,32.968z"/>
	<g>
		<path style="fill:#A1884A;" d="M49,18.271V24c0,3.662-2.274,6.983-5.62,8.341c-1.614-3.411-0.937-7.512,1.767-10.224L49,18.271     M50,15.86l-5.56,5.55c-3.29,3.3-3.8,8.32-1.54,12.16C47.01,32.33,50,28.51,50,24V15.86L50,15.86z"/>
	</g>
</g>
<g>
	<path style="fill:#D3E0BA;" d="M51.518,37.982c-1.569,0-3.111-0.386-4.485-1.118C48.348,33.098,51.979,30.5,56,30.5h6.934   l-4.697,4.706C56.441,36.996,54.055,37.982,51.518,37.982z"/>
	<g>
		<path style="fill:#849C5E;" d="M61.729,31l-3.845,3.852c-1.701,1.696-3.962,2.63-6.366,2.63c-1.34,0-2.659-0.296-3.859-0.863    C49.018,33.274,52.338,31,56,31H61.729 M64.14,30H56c-4.51,0-8.33,2.99-9.57,7.1c1.565,0.921,3.327,1.382,5.088,1.382    c2.559,0,5.117-0.973,7.072-2.922L64.14,30L64.14,30z"/>
	</g>
</g>
<g>
	<path style="fill:#BDC9F2;" d="M30.5,56c0-4.021,2.598-7.651,6.363-8.968c0.732,1.379,1.117,2.922,1.117,4.487   c0,2.542-0.985,4.928-2.774,6.717L30.5,62.934V56z"/>
	<g>
		<path style="fill:#7575A1;" d="M36.618,47.659c0.566,1.203,0.862,2.523,0.862,3.861c0,2.409-0.933,4.669-2.626,6.362L31,61.729V56    C31,52.339,33.273,49.018,36.618,47.659 M37.1,46.43C32.99,47.67,30,51.49,30,56v8.14l5.56-5.55c1.95-1.95,2.92-4.51,2.92-7.07    C38.48,49.76,38.02,48,37.1,46.43L37.1,46.43z"/>
	</g>
</g>
<g>
	<path style="fill:#F2D5F2;" d="M17.066,49.5l4.697-4.706c1.795-1.79,4.182-2.776,6.719-2.776c1.569,0,3.111,0.386,4.486,1.118   c-0.466,1.336-1.238,2.567-2.252,3.581C28.921,48.512,26.535,49.5,24,49.5H17.066z"/>
	<g>
		<path style="fill:#9775A1;" d="M28.482,42.518L28.482,42.518c1.34,0,2.659,0.296,3.86,0.863c-0.448,1.107-1.123,2.126-1.979,2.982    C28.662,48.063,26.403,49,24,49h-5.729l3.845-3.852C23.817,43.452,26.078,42.518,28.482,42.518 M28.482,41.518    c-2.559,0-5.117,0.973-7.072,2.922L15.86,50H24c2.76,0,5.26-1.12,7.07-2.93c1.15-1.15,2.02-2.57,2.5-4.17    C32.005,41.979,30.243,41.518,28.482,41.518L28.482,41.518z"/>
	</g>
</g>
<g>
	<path style="fill:#C2FBFF;" d="M56,49.5c-4.021,0-7.652-2.598-8.968-6.364c1.374-0.732,2.916-1.118,4.485-1.118   c2.537,0,4.924,0.986,6.719,2.777l4.697,4.705H56z"/>
	<g>
		<path style="fill:#689DBA;" d="M51.519,42.518L51.519,42.518c2.403,0,4.664,0.934,6.364,2.629L61.729,49H56    c-3.662,0-6.982-2.274-8.341-5.62C48.859,42.814,50.179,42.518,51.519,42.518 M51.518,41.518c-1.761,0-3.523,0.461-5.088,1.382    C47.67,47.01,51.49,50,56,50h8.14l-5.55-5.56C56.635,42.491,54.077,41.518,51.518,41.518L51.518,41.518z"/>
	</g>
</g>
<g>
	<path style="fill:#C2DEFF;" d="M44.794,58.236c-2.965-2.974-3.621-7.528-1.658-11.205c1.336,0.466,2.566,1.238,3.581,2.252   C48.512,51.079,49.5,53.465,49.5,56v6.934L44.794,58.236z"/>
	<g>
		<path style="fill:#6388BA;" d="M43.38,47.658c1.107,0.448,2.127,1.123,2.983,1.979C48.063,51.338,49,53.597,49,56v5.729    l-3.852-3.845C42.443,55.171,41.766,51.069,43.38,47.658 M42.9,46.43c-2.26,3.84-1.75,8.86,1.54,12.16L50,64.14V56    c0-2.76-1.12-5.26-2.93-7.07C45.92,47.78,44.5,46.91,42.9,46.43L42.9,46.43z"/>
	</g>
</g>
<g>
	<path style="fill:#F7B08F;" d="M36.864,32.968C33.098,31.652,30.5,28.021,30.5,24v-6.934l4.706,4.697   C38.171,24.737,38.827,29.291,36.864,32.968z"/>
	<g>
		<path style="fill:#C75943;" d="M31,18.271l3.852,3.845c2.705,2.713,3.382,6.814,1.768,10.225C33.274,30.983,31,27.662,31,24    V18.271 M30,15.86V24c0,4.51,2.99,8.33,7.1,9.57c2.26-3.84,1.75-8.86-1.54-12.16L30,15.86L30,15.86z"/>
	</g>
</g>
<g>
	<path style="fill:#F78FAE;" d="M28.48,37.98c-2.542,0-4.928-0.985-6.717-2.774L17.066,30.5H24c4.021,0,7.651,2.598,8.968,6.363   C31.589,37.596,30.046,37.98,28.48,37.98z"/>
	<g>
		<path style="fill:#C7435B;" d="M24,31c3.661,0,6.982,2.273,8.341,5.618c-1.203,0.566-2.523,0.862-3.861,0.862    c-2.409,0-4.669-0.933-6.362-2.626L18.271,31H24 M24,30h-8.14l5.55,5.56c1.95,1.95,4.51,2.92,7.07,2.92    c1.76,0,3.52-0.46,5.09-1.38C32.33,32.99,28.51,30,24,30L24,30z"/>
	</g>
</g>
</svg>