<svg width="40" height="41" viewBox="0 0 40 41" fill="none" xmlns="http://www.w3.org/2000/svg">
<path d="M39.3815 26.8115H38.2939H37.8674V9.54478C37.8674 7.29847 36.069 5.5 33.8226 5.5H6.17736C3.93105 5.5 2.13258 7.29847 2.13258 9.54478V26.8115H1.79847H1.02364H0V29.918C0 32.1643 1.79847 33.9628 4.04478 33.9628H35.9552C38.2015 33.9628 40 32.1643 40 29.918V26.8115H39.3815ZM3.84574 9.54478C3.84574 8.28657 4.83384 7.29847 6.09206 7.29847H33.8298C35.088 7.29847 36.0761 8.28657 36.0761 9.54478L36.1543 26.8115H3.92394L3.84574 9.54478ZM38.2939 29.918C38.2939 31.1762 37.3058 32.1643 36.0476 32.1643H4.04478C2.78656 32.1643 1.79847 31.1762 1.79847 29.918V29.4204V29.2V28.61H38.2939V29.918Z" fill="white"/>
</svg>
