<svg xmlns="http://www.w3.org/2000/svg" viewBox="0 0 150 150" width="150" height="150" preserveAspectRatio="xMidYMid meet" style="width: 100%; height: 100%; transform: translate3d(0px, 0px, 0px);"><defs><clipPath id="__lottie_element_2"><rect width="150" height="150" x="0" y="0"></rect></clipPath><mask id="__lottie_element_3" mask-type="alpha"><g transform="matrix(1,0,0,1,49.47200012207031,56.15899658203125)" opacity="1" style="display: block;"><path fill="rgb(255,0,0)" fill-opacity="1" d=" M48.55,15.78 C48.55,15.78 25.53,40.97 25.53,40.97 C25.53,40.97 2.5,15.78 2.5,15.78 M40.88,2.5 C40.88,2.5 10.18,2.5 10.18,2.5 C10.18,2.5 2.5,15.78 2.5,15.78 C2.5,15.78 48.56,15.78 48.56,15.78 C48.56,15.78 40.88,2.5 40.88,2.5z"></path><g opacity="1" transform="matrix(1,0,0,1,25.527000427246094,28.37299919128418)"></g><g opacity="1" transform="matrix(1,0,0,1,25.527999877929688,9.138999938964844)"></g></g></mask><clipPath id="__lottie_element_7"><path d="M0,0 L200,0 L200,200 L0,200z"></path></clipPath></defs><g clip-path="url(#__lottie_element_2)"><g transform="matrix(1.6233526468276978,0,0,1.6233526468276978,11.380813598632812,11.378185272216797)" opacity="1" style="display: block;"><g opacity="1" transform="matrix(1,0,0,1,39.189998626708984,39.191001892089844)"><path stroke-linecap="round" stroke-linejoin="round" fill-opacity="0" stroke="rgb(172,129,24)" stroke-opacity="1" stroke-width="0.043457654449692074" d=" M36.691001892089844,0.0010000000474974513 C36.691001892089844,20.264999389648438 20.263999938964844,36.691001892089844 0.0010000000474974513,36.691001892089844 C-20.26300048828125,36.691001892089844 -36.691001892089844,20.264999389648438 -36.691001892089844,0.0010000000474974513 C-36.691001892089844,-20.26300048828125 -20.26300048828125,-36.691001892089844 0.0010000000474974513,-36.691001892089844 C20.263999938964844,-36.691001892089844 36.691001892089844,-20.26300048828125 36.691001892089844,0.0010000000474974513z"></path></g></g><g style="display: block;" transform="matrix(1.091566562652588,0,0,1.091566562652588,32.22150802612305,32.21941375732422)" opacity="1"><g opacity="1" transform="matrix(1,0,0,1,39.189998626708984,39.191001892089844)"><path stroke-linecap="round" stroke-linejoin="round" fill-opacity="0" stroke="rgb(172,129,24)" stroke-opacity="1" stroke-width="0.5700261906533097" d=" M36.691001892089844,0.0010000000474974513 C36.691001892089844,20.264999389648438 20.263999938964844,36.691001892089844 0.0010000000474974513,36.691001892089844 C-20.26300048828125,36.691001892089844 -36.691001892089844,20.264999389648438 -36.691001892089844,0.0010000000474974513 C-36.691001892089844,-20.26300048828125 -20.26300048828125,-36.691001892089844 0.0010000000474974513,-36.691001892089844 C20.263999938964844,-36.691001892089844 36.691001892089844,-20.26300048828125 36.691001892089844,0.0010000000474974513z"></path></g></g><g transform="matrix(1,0,0,1,49.47200012207031,56.15899658203125)" opacity="1" style="display: block;"><g opacity="1" transform="matrix(1,0,0,1,25.527000427246094,28.37299919128418)"><path stroke-linecap="round" stroke-linejoin="round" fill-opacity="0" stroke="rgb(172,129,24)" stroke-opacity="1" stroke-width="1" d=" M23.027000427246094,-12.595000267028809 C23.027000427246094,-12.595000267028809 0.0010000000474974513,12.595000267028809 0.0010000000474974513,12.595000267028809 C0.0010000000474974513,12.595000267028809 -23.027000427246094,-12.595000267028809 -23.027000427246094,-12.595000267028809"></path></g><g opacity="1" transform="matrix(1,0,0,1,25.527999877929688,9.138999938964844)"><path stroke-linecap="round" stroke-linejoin="round" fill-opacity="0" stroke="rgb(172,129,24)" stroke-opacity="1" stroke-width="1" d=" M15.35200023651123,-6.638999938964844 C15.35200023651123,-6.638999938964844 -15.35200023651123,-6.638999938964844 -15.35200023651123,-6.638999938964844 C-15.35200023651123,-6.638999938964844 -23.027000427246094,6.638999938964844 -23.027000427246094,6.638999938964844 C-23.027000427246094,6.638999938964844 23.027000427246094,6.638999938964844 23.027000427246094,6.638999938964844 C23.027000427246094,6.638999938964844 15.35200023651123,-6.638999938964844 15.35200023651123,-6.638999938964844z"></path></g></g><g mask="url(#__lottie_element_3)" style="display: block;"><g clip-path="url(#__lottie_element_7)" transform="matrix(1,0,0,1,-25,-25)" opacity="1"><g transform="matrix(1,0,0,1,48.18659210205078,81.38400268554688)" opacity="1" style="display: block;"><g opacity="1" transform="matrix(1,0,0,1,25.527999877929688,9.027000427246094)"><path stroke-linecap="round" stroke-linejoin="round" fill-opacity="0" stroke="rgb(172,129,24)" stroke-opacity="1" stroke-width="1" d=" M-23.027000427246094,6.5269999504089355 C-23.027000427246094,6.5269999504089355 -15.35200023651123,-6.5269999504089355 -15.35200023651123,-6.5269999504089355 C-15.35200023651123,-6.5269999504089355 -7.676000118255615,6.5269999504089355 -7.676000118255615,6.5269999504089355 C-7.676000118255615,6.5269999504089355 -0.0010000000474974513,-6.5269999504089355 -0.0010000000474974513,-6.5269999504089355 C-0.0010000000474974513,-6.5269999504089355 7.675000190734863,6.5269999504089355 7.675000190734863,6.5269999504089355 C7.675000190734863,6.5269999504089355 15.35200023651123,-6.5269999504089355 15.35200023651123,-6.5269999504089355 C15.35200023651123,-6.5269999504089355 23.027000427246094,6.5269999504089355 23.027000427246094,6.5269999504089355"></path></g></g><g transform="matrix(1,0,0,1,93.85359191894531,81.38400268554688)" opacity="1" style="display: block;"><g opacity="1" transform="matrix(1,0,0,1,25.527999877929688,9.027000427246094)"><path stroke-linecap="round" stroke-linejoin="round" fill-opacity="0" stroke="rgb(172,129,24)" stroke-opacity="1" stroke-width="1" d=" M-23.027000427246094,6.5269999504089355 C-23.027000427246094,6.5269999504089355 -15.35200023651123,-6.5269999504089355 -15.35200023651123,-6.5269999504089355 C-15.35200023651123,-6.5269999504089355 -7.676000118255615,6.5269999504089355 -7.676000118255615,6.5269999504089355 C-7.676000118255615,6.5269999504089355 -0.0010000000474974513,-6.5269999504089355 -0.0010000000474974513,-6.5269999504089355 C-0.0010000000474974513,-6.5269999504089355 7.675000190734863,6.5269999504089355 7.675000190734863,6.5269999504089355 C7.675000190734863,6.5269999504089355 15.35200023651123,-6.5269999504089355 15.35200023651123,-6.5269999504089355 C15.35200023651123,-6.5269999504089355 23.027000427246094,6.5269999504089355 23.027000427246094,6.5269999504089355"></path></g></g><g transform="matrix(1,0,0,1,91.82400512695312,96.43799591064453)" opacity="1" style="display: block;"><g opacity="1" transform="matrix(1,0,0,1,4.3379998207092285,13.095000267028809)"><path stroke-linecap="round" stroke-linejoin="round" fill-opacity="0" stroke="rgb(172,129,24)" stroke-opacity="1" stroke-width="1" d=" M3.8380000591278076,12.595000267028809 C3.8380000591278076,12.595000267028809 -30.011259078979492,-12.595000267028809 -30.011259078979492,-12.595000267028809"></path></g></g><g transform="matrix(1,0,0,1,99.5,96.43799591064453)" opacity="1" style="display: block;"><g opacity="1" transform="matrix(1,0,0,1,4.3379998207092285,13.095000267028809)"><path stroke-linecap="round" stroke-linejoin="round" fill-opacity="0" stroke="rgb(172,129,24)" stroke-opacity="1" stroke-width="1" d=" M-22.194684982299805,-12.515569686889648 C-22.194684982299805,-12.515569686889648 -3.8380000591278076,12.595000267028809 -3.8380000591278076,12.595000267028809"></path></g></g><g transform="matrix(1,0,0,1,91.82400512695312,96.43799591064453)" opacity="1" style="display: block;"><g opacity="1" transform="matrix(1,0,0,1,4.3379998207092285,13.095000267028809)"><path stroke-linecap="round" stroke-linejoin="round" fill-opacity="0" stroke="rgb(172,129,24)" stroke-opacity="1" stroke-width="1" d=" M3.8380000591278076,12.595000267028809 C3.8380000591278076,12.595000267028809 15.974568367004395,-12.534547805786133 15.974568367004395,-12.534547805786133"></path></g></g><g transform="matrix(1,0,0,1,91.82400512695312,96.43799591064453)" opacity="1" style="display: block;"><g opacity="1" transform="matrix(1,0,0,1,4.3379998207092285,13.095000267028809)"><path stroke-linecap="round" stroke-linejoin="round" fill-opacity="0" stroke="rgb(172,129,24)" stroke-opacity="1" stroke-width="1" d=" M3.8380000591278076,12.595000267028809 C3.8380000591278076,12.595000267028809 0.44687619805336,-12.495427131652832 0.44687619805336,-12.495427131652832"></path></g></g><g transform="matrix(1,0,0,1,99.5,96.43799591064453)" opacity="1" style="display: block;"><g opacity="1" transform="matrix(1,0,0,1,4.3379998207092285,13.095000267028809)"><path stroke-linecap="round" stroke-linejoin="round" fill-opacity="0" stroke="rgb(172,129,24)" stroke-opacity="1" stroke-width="1" d=" M23.48921775817871,-12.534547805786133 C23.48921775817871,-12.534547805786133 -3.8380000591278076,12.595000267028809 -3.8380000591278076,12.595000267028809"></path></g></g></g></g></g></svg>