<svg width="77" height="77" viewBox="0 0 77 77" fill="none" xmlns="http://www.w3.org/2000/svg">
<path d="M67.25 31.9165C67.25 54.0832 38.75 73.0832 38.75 73.0832C38.75 73.0832 10.25 54.0832 10.25 31.9165C10.25 24.3578 13.2527 17.1087 18.5975 11.764C23.9422 6.41917 31.1913 3.4165 38.75 3.4165C46.3087 3.4165 53.5578 6.41917 58.9025 11.764C64.2473 17.1087 67.25 24.3578 67.25 31.9165Z" stroke="#996D01" stroke-width="4" stroke-linecap="round" stroke-linejoin="round"/>
<path d="M38.75 41.4165C43.9967 41.4165 48.25 37.1632 48.25 31.9165C48.25 26.6698 43.9967 22.4165 38.75 22.4165C33.5033 22.4165 29.25 26.6698 29.25 31.9165C29.25 37.1632 33.5033 41.4165 38.75 41.4165Z" stroke="#996D01" stroke-width="4" stroke-linecap="round" stroke-linejoin="round"/>
</svg>
