<svg width="24" height="24" viewBox="0 0 24 24" fill="none" xmlns="http://www.w3.org/2000/svg">
<path d="M16.7643 9.56348C16.5098 9.56348 16.328 9.78166 16.328 9.99984V20.618C16.328 21.1271 15.928 21.5271 15.4189 21.5271H9.09162C8.58253 21.5271 8.18253 21.1271 8.18253 20.618V18.9089C8.18253 18.6544 7.96435 18.4726 7.7098 18.4726C7.45526 18.4726 7.27344 18.6907 7.27344 18.9453V20.6544C7.27344 21.6726 8.1098 22.4726 9.09162 22.4726H15.3825C16.4007 22.4726 17.2007 21.6362 17.2007 20.6544V10.0362C17.2007 9.78166 16.9825 9.56348 16.7643 9.56348Z" fill="#996D01"/>
<path d="M7.7098 14.2907C7.96435 14.2907 8.18253 14.0726 8.18253 13.818V5.05439C8.18253 4.54529 8.58253 4.14529 9.09162 4.14529H15.3825C15.8916 4.14529 16.2916 4.54529 16.2916 5.05439V5.56348C16.2916 5.81802 16.5098 6.0362 16.7643 6.0362C17.0189 6.0362 17.2371 5.81802 17.2371 5.56348V5.05439C17.2371 4.0362 16.4007 3.2362 15.4189 3.2362H15.128C15.0553 2.29075 14.2553 1.56348 13.3098 1.56348H11.2734C10.328 1.56348 9.52798 2.29075 9.45526 3.2362H9.09162C8.07344 3.2362 7.27344 4.07257 7.27344 5.05439V13.8544C7.27344 14.1089 7.45526 14.2907 7.7098 14.2907ZM11.2007 2.4362H13.2371C13.7098 2.4362 14.0734 2.76348 14.1462 3.19984H10.2916C10.3643 2.79984 10.7643 2.4362 11.2007 2.4362Z" fill="#996D01"/>
<path d="M19.6357 4.58168C19.4538 4.39986 19.1629 4.39986 18.9811 4.58168L4.36293 19.1635C4.18111 19.3453 4.18111 19.6362 4.36293 19.818C4.54474 19.9999 4.83565 19.9999 5.01747 19.818L19.6357 5.27259C19.8175 5.12713 19.8175 4.76349 19.6357 4.58168Z" fill="#996D01"/>
</svg>
