<svg width="48" height="48" viewBox="0 0 48 48" fill="none" xmlns="http://www.w3.org/2000/svg">
<path d="M33.9807 19.3042C33.4938 19.3042 33.146 19.7216 33.146 20.139V40.452C33.146 41.4259 32.3807 42.1912 31.4068 42.1912H19.3025C18.3286 42.1912 17.5633 41.4259 17.5633 40.452V37.1825C17.5633 36.6955 17.146 36.3477 16.659 36.3477C16.172 36.3477 15.8242 36.7651 15.8242 37.252V40.5216C15.8242 42.4694 17.4242 43.9999 19.3025 43.9999H31.3373C33.2851 43.9999 34.8155 42.3999 34.8155 40.5216V20.2085C34.8155 19.7216 34.3981 19.3042 33.9807 19.3042Z" fill="url(#paint0_linear_5851_41124)"/>
<path d="M16.659 28.3478C17.146 28.3478 17.5633 27.9304 17.5633 27.4435V10.6783C17.5633 9.70435 18.3286 8.93913 19.3025 8.93913H31.3373C32.3112 8.93913 33.0764 9.70435 33.0764 10.6783V11.6522C33.0764 12.1391 33.4938 12.5565 33.9807 12.5565C34.4677 12.5565 34.8851 12.1391 34.8851 11.6522V10.6783C34.8851 8.73043 33.2851 7.2 31.4068 7.2H30.8503C30.7112 5.3913 29.1807 4 27.372 4H23.4764C21.6677 4 20.1373 5.3913 19.9981 7.2H19.3025C17.3547 7.2 15.8242 8.8 15.8242 10.6783V27.513C15.8242 28 16.172 28.3478 16.659 28.3478ZM23.3373 5.66956H27.2329C28.1373 5.66956 28.8329 6.29565 28.972 7.13043H21.5981C21.7373 6.36522 22.5025 5.66956 23.3373 5.66956Z" fill="url(#paint1_linear_5851_41124)"/>
<path d="M39.4783 9.77405C39.1304 9.42623 38.5739 9.42623 38.2261 9.77405L10.2609 37.6697C9.91304 38.0175 9.91304 38.5741 10.2609 38.9219C10.6087 39.2697 11.1652 39.2697 11.513 38.9219L39.4783 11.0958C39.8261 10.8175 39.8261 10.1219 39.4783 9.77405Z" fill="url(#paint2_linear_5851_41124)"/>
<defs>
<linearGradient id="paint0_linear_5851_41124" x1="16.4408" y1="25.0772" x2="36.8021" y2="29.0647" gradientUnits="userSpaceOnUse">
<stop stop-color="#AC8118"/>
<stop offset="0.242708" stop-color="#C79A2D"/>
<stop offset="0.482292" stop-color="#AC8118"/>
<stop offset="0.576042" stop-color="#B78E2A"/>
<stop offset="0.703732" stop-color="#AC8118"/>
</linearGradient>
<linearGradient id="paint1_linear_5851_41124" x1="16.4431" y1="9.6917" x2="36.8515" y2="13.7603" gradientUnits="userSpaceOnUse">
<stop stop-color="#AC8118"/>
<stop offset="0.242708" stop-color="#C79A2D"/>
<stop offset="0.482292" stop-color="#AC8118"/>
<stop offset="0.576042" stop-color="#B78E2A"/>
<stop offset="0.703732" stop-color="#AC8118"/>
</linearGradient>
<linearGradient id="paint2_linear_5851_41124" x1="10.9656" y1="16.4489" x2="42.0476" y2="24.3828" gradientUnits="userSpaceOnUse">
<stop stop-color="#AC8118"/>
<stop offset="0.242708" stop-color="#C79A2D"/>
<stop offset="0.482292" stop-color="#AC8118"/>
<stop offset="0.576042" stop-color="#B78E2A"/>
<stop offset="0.703732" stop-color="#AC8118"/>
</linearGradient>
</defs>
</svg>
