<svg width="48" height="48" viewBox="0 0 48 48" fill="none" xmlns="http://www.w3.org/2000/svg">
<path d="M12.8203 22.2383C12.8203 19.9217 13.5245 17.7696 14.7289 15.986C14.9856 15.6043 15.4989 15.5056 15.8741 15.7623C16.2558 16.0189 16.3545 16.5323 16.0978 16.9074C15.0711 18.4277 14.4722 20.2639 14.4722 22.2383C14.4722 24.8709 15.5384 27.2533 17.2627 28.9776C18.987 30.7019 21.3695 31.7681 24.002 31.7681C26.6346 31.7681 29.017 30.7019 30.7348 28.9776M12.8203 22.2383C12.8269 28.4051 17.8287 33.4135 24.002 33.4135C30.1753 33.4135 35.1772 28.4116 35.1772 22.2383C35.1772 19.9283 34.473 17.7696 33.2686 15.986M12.8203 22.2383H13.4722C13.4722 25.1465 14.6513 27.7804 16.5556 29.6847C18.4599 31.5891 21.0938 32.7681 24.002 32.7681C26.9092 32.7681 29.5434 31.5898 31.4419 29.6847M12.8203 22.2383L31.4419 29.6847M33.2686 15.986C33.0119 15.6109 32.5051 15.5122 32.1234 15.7623M33.2686 15.986L32.732 16.3532C33.8648 18.0328 34.5252 20.0544 34.5252 22.2383C34.5252 25.1465 33.3462 27.7804 31.4419 29.6847M33.2686 15.986L32.7298 16.3499C32.7293 16.3492 32.7288 16.3485 32.7284 16.3478L32.5886 16.4422L32.1234 15.7623M32.1234 15.7623C31.7483 16.0189 31.6496 16.5257 31.8997 16.9074M32.1234 15.7623L32.5749 16.4514L31.8997 16.9074M31.8997 16.9074C32.9263 18.4277 33.5252 20.2573 33.5252 22.2383C33.5252 24.8709 32.4591 27.2533 30.7348 28.9776M31.8997 16.9074L32.4435 16.5511C33.5374 18.1732 34.1772 20.1359 34.1772 22.2383C34.1772 25.0501 33.0376 27.5948 31.1951 29.4362M30.7348 28.9776L31.1951 29.4362M30.7348 28.9776L31.1942 29.4371C29.3533 31.2763 26.8109 32.4135 24.002 32.4135C21.1926 32.4135 18.6494 31.2741 16.8074 29.433C14.9645 27.591 13.8236 25.0467 13.8203 22.2383C13.8203 22.2382 13.8203 22.238 13.8203 22.2378C13.8203 22.2376 13.8203 22.2374 13.8203 22.2373L31.1951 29.4362M31.1951 29.4362L31.4419 29.6847M32.6714 16.5987C32.6019 16.6443 32.4971 16.629 32.4435 16.5511L32.5812 16.4609L32.6714 16.5987ZM32.6881 16.5876L32.5952 16.4517L32.7361 16.3594C32.7818 16.4291 32.7663 16.5341 32.6881 16.5876Z" stroke="url(#paint0_linear_5851_41134)" stroke-width="2"/>
<path d="M36.6691 9.45051C36.3466 9.12803 35.8267 9.13461 35.5042 9.45709C35.1883 9.77958 35.1883 10.2995 35.5108 10.622C38.4987 13.5902 40.3481 17.6904 40.3547 22.2381C40.3547 26.7595 38.525 30.8399 35.5634 33.8015C32.6018 36.7631 28.5148 38.5927 24 38.5927C19.4786 38.5927 15.3982 36.7631 12.4366 33.8015C9.47495 30.8399 7.64534 26.7529 7.64534 22.2381C7.64534 17.6904 9.4947 13.5902 12.4892 10.622C12.8117 10.2995 12.8117 9.77958 12.4958 9.45709C12.1733 9.13461 11.6534 9.13461 11.3309 9.45051C8.04022 12.7083 6 17.2363 6 22.2315C6 32.1759 14.0556 40.2315 24 40.2315C33.9444 40.2315 42 32.1759 42 22.2315C42 17.2363 39.9598 12.7083 36.6691 9.45051Z" fill="url(#paint1_linear_5851_41134)"/>
<path d="M23.2748 19.066C23.2748 19.066 23.2814 19.066 23.2748 19.066C22.7615 19.2372 22.3139 19.5728 21.9915 19.9874C21.5176 20.5929 21.2543 21.3827 21.2543 22.2317C21.2543 23.0873 21.5176 23.8704 21.9915 24.4759C22.4587 25.0748 23.1695 25.5158 23.9988 25.5158C24.8214 25.5158 25.5388 25.0814 26.0061 24.4759C26.4799 23.8704 26.7432 23.0807 26.7432 22.2317C26.7432 21.3761 26.4799 20.5929 26.0061 19.9874C25.6836 19.5662 25.2361 19.2372 24.7161 19.066L31.1988 7.21961C31.416 6.81815 31.2712 6.31797 30.8697 6.10078C30.4682 5.8836 29.9681 6.02839 29.7509 6.42985L23.9988 16.96L18.2401 6.43643C18.0229 6.03497 17.5227 5.89018 17.1213 6.10736C16.7198 6.32455 16.575 6.82473 16.7922 7.22619L23.2748 19.066ZM24.7096 23.469C24.4792 23.7586 24.2357 23.8704 23.9988 23.8704C23.7618 23.8704 23.5183 23.752 23.288 23.469C23.0642 23.186 22.8997 22.7384 22.8997 22.2383C22.8997 21.7315 23.0642 21.2905 23.288 21.0075C23.5183 20.718 23.7618 20.6061 23.9988 20.6061C24.2357 20.6061 24.4792 20.7245 24.7096 21.0075C24.9333 21.2905 25.0979 21.7315 25.0979 22.2383C25.0979 22.7384 24.9333 23.186 24.7096 23.469Z" fill="url(#paint2_linear_5851_41134)"/>
<defs>
<linearGradient id="paint0_linear_5851_41134" x1="13.5462" y1="19.7792" x2="36.1236" y2="27.0032" gradientUnits="userSpaceOnUse">
<stop stop-color="#AC8118"/>
<stop offset="0.242708" stop-color="#C79A2D"/>
<stop offset="0.482292" stop-color="#AC8118"/>
<stop offset="0.576042" stop-color="#B78E2A"/>
<stop offset="0.703732" stop-color="#AC8118"/>
</linearGradient>
<linearGradient id="paint1_linear_5851_41134" x1="7.16883" y1="16.4632" x2="44.0265" y2="27.3564" gradientUnits="userSpaceOnUse">
<stop stop-color="#AC8118"/>
<stop offset="0.242708" stop-color="#C79A2D"/>
<stop offset="0.482292" stop-color="#AC8118"/>
<stop offset="0.576042" stop-color="#B78E2A"/>
<stop offset="0.703732" stop-color="#AC8118"/>
</linearGradient>
<linearGradient id="paint2_linear_5851_41134" x1="17.1657" y1="10.5621" x2="32.8581" y2="13.5534" gradientUnits="userSpaceOnUse">
<stop stop-color="#AC8118"/>
<stop offset="0.242708" stop-color="#C79A2D"/>
<stop offset="0.482292" stop-color="#AC8118"/>
<stop offset="0.576042" stop-color="#B78E2A"/>
<stop offset="0.703732" stop-color="#AC8118"/>
</linearGradient>
</defs>
</svg>
