<svg width="48" height="48" viewBox="0 0 48 48" fill="none" xmlns="http://www.w3.org/2000/svg">
<path d="M35.2951 4C34.8115 4 34.5352 4.27634 34.5352 4.75993C34.5352 5.24352 34.8115 5.51986 35.2951 5.51986C37.3676 5.51986 39.3711 6.34888 40.6837 7.79966C42.1345 9.25044 42.9635 11.1157 42.9635 13.1883C42.9635 13.6719 43.2398 13.9482 43.7234 13.9482C44.207 13.9482 44.4833 13.6719 44.4833 13.1883C44.4143 8.14508 40.3383 4 35.2951 4Z" fill="url(#paint0_linear_5851_41119)"/>
<path d="M34.7443 7.52344C34.2607 7.52344 33.9844 7.79978 33.9844 8.28337C33.9844 8.76696 34.2607 9.0433 34.7443 9.0433C35.9187 9.0433 37.0932 9.59598 37.9222 10.3559C38.7512 11.1849 39.2348 12.2212 39.2348 13.5338C39.2348 14.0174 39.5112 14.2937 39.9947 14.2937C40.4783 14.2937 40.7547 14.0174 40.7547 13.5338C40.7547 10.1487 38.0604 7.52344 34.7443 7.52344Z" fill="url(#paint1_linear_5851_41119)"/>
<path d="M34.2599 12.8426C34.9508 12.8426 35.4344 13.3953 35.4344 14.0171C35.4344 14.5006 35.7107 14.777 36.1943 14.777C36.6779 14.777 36.9542 14.5006 36.9542 14.0171C36.9542 12.4972 35.7798 11.3228 34.2599 11.3228C33.7763 11.3228 33.5 11.5991 33.5 12.0827C33.5 12.5663 33.8454 12.8426 34.2599 12.8426Z" fill="url(#paint2_linear_5851_41119)"/>
<path d="M37.9897 25.5546C37.9897 25.4855 37.9897 25.4164 37.9897 25.3473C37.9897 25.3473 37.9897 25.3473 37.9897 25.2783V25.2092C37.9897 25.1401 37.9897 25.1401 37.9206 25.071V25.0019C37.9206 25.0019 37.9206 25.0019 37.9206 24.9328L32.4629 15.5373C32.3247 15.3301 32.1175 15.1919 31.8411 15.1919H10.0795C9.80311 15.1919 9.59586 15.3301 9.45769 15.5373L4.06908 25.0019C4.06908 25.0019 4.06908 25.0019 4.06908 25.071V25.1401C4.06908 25.2092 4.06908 25.2092 4 25.2783V25.3473C4 25.3473 4 25.3473 4 25.4164C4 25.4855 4 25.5546 4 25.6237C4 25.6237 4 25.6237 4 25.6928C4 25.6928 4 25.6928 4 25.7619C4 25.7619 4 25.8309 4.06908 25.8309C4.06908 25.8309 4.06908 25.8309 4.06908 25.9C4.06908 25.9 4.06908 25.9 4.13817 25.9691L20.5112 43.862C20.5112 43.862 20.5112 43.862 20.5803 43.862L20.6494 43.9311L20.7185 44.0002H20.7876C20.7876 44.0002 20.7876 44.0002 20.8567 44.0002H20.9257C20.9948 44.0002 20.9948 44.0002 21.0639 44.0002C21.133 44.0002 21.133 44.0002 21.133 44.0002H21.2021C21.2021 44.0002 21.2021 44.0002 21.2712 44.0002H21.3403L21.4093 43.9311L21.4784 43.862C21.4784 43.862 21.4784 43.862 21.5475 43.862L37.9206 25.9691C37.9206 25.9691 37.9206 25.9691 37.9897 25.9C37.9897 25.9 37.9897 25.9 37.9897 25.8309V25.7619C37.9897 25.6237 37.9897 25.6237 37.9897 25.5546ZM25.4853 26.0382L20.9948 40.8914L16.5043 26.0382H25.4853ZM16.7116 24.6565L20.9257 17.4717L25.1399 24.6565H16.7116ZM36.1244 24.6565H27.627L31.8411 17.4717L36.1244 24.6565ZM26.4525 24.0347L22.1002 16.6427H30.8049L26.4525 24.0347ZM15.5371 24.0347L11.1848 16.6427H19.8895L15.5371 24.0347ZM14.2936 24.6565H5.86529L10.0795 17.4717L14.2936 24.6565ZM15.0535 26.0382L19.475 40.4769L6.21071 26.0382H15.0535ZM26.9361 26.0382H35.779L22.5147 40.546L26.9361 26.0382Z" fill="url(#paint3_linear_5851_41119)"/>
<defs>
<linearGradient id="paint0_linear_5851_41119" x1="34.8581" y1="6.32555" x2="45.2585" y2="8.9741" gradientUnits="userSpaceOnUse">
<stop stop-color="#AC8118"/>
<stop offset="0.242708" stop-color="#C79A2D"/>
<stop offset="0.482292" stop-color="#AC8118"/>
<stop offset="0.576042" stop-color="#B78E2A"/>
<stop offset="0.703732" stop-color="#AC8118"/>
</linearGradient>
<linearGradient id="paint1_linear_5851_41119" x1="34.2042" y1="9.10611" x2="41.2822" y2="10.9086" gradientUnits="userSpaceOnUse">
<stop stop-color="#AC8118"/>
<stop offset="0.242708" stop-color="#C79A2D"/>
<stop offset="0.482292" stop-color="#AC8118"/>
<stop offset="0.576042" stop-color="#B78E2A"/>
<stop offset="0.703732" stop-color="#AC8118"/>
</linearGradient>
<linearGradient id="paint2_linear_5851_41119" x1="33.6122" y1="12.1302" x2="37.2234" y2="13.0499" gradientUnits="userSpaceOnUse">
<stop stop-color="#AC8118"/>
<stop offset="0.242708" stop-color="#C79A2D"/>
<stop offset="0.482292" stop-color="#AC8118"/>
<stop offset="0.576042" stop-color="#B78E2A"/>
<stop offset="0.703732" stop-color="#AC8118"/>
</linearGradient>
<linearGradient id="paint3_linear_5851_41119" x1="5.10356" y1="21.9263" x2="39.8095" y2="32.3541" gradientUnits="userSpaceOnUse">
<stop stop-color="#AC8118"/>
<stop offset="0.242708" stop-color="#C79A2D"/>
<stop offset="0.482292" stop-color="#AC8118"/>
<stop offset="0.576042" stop-color="#B78E2A"/>
<stop offset="0.703732" stop-color="#AC8118"/>
</linearGradient>
</defs>
</svg>
