<svg width="24" height="24" viewBox="0 0 24 24" fill="none" xmlns="http://www.w3.org/2000/svg">
<path d="M18.2109 1C17.945 1 17.793 1.15199 17.793 1.41796C17.793 1.68394 17.945 1.83592 18.2109 1.83592C19.3508 1.83592 20.4527 2.29188 21.1747 3.08981C21.9726 3.88774 22.4286 4.91365 22.4286 6.05354C22.4286 6.31952 22.5805 6.47151 22.8465 6.47151C23.1125 6.47151 23.2645 6.31952 23.2645 6.05354C23.2265 3.27979 20.9847 1 18.2109 1Z" fill="#996D01"/>
<path d="M17.9101 2.93799C17.6442 2.93799 17.4922 3.08997 17.4922 3.35595C17.4922 3.62193 17.6442 3.77391 17.9101 3.77391C18.5561 3.77391 19.202 4.07789 19.658 4.49585C20.1139 4.95181 20.3799 5.52175 20.3799 6.24369C20.3799 6.50967 20.5319 6.66165 20.7979 6.66165C21.0639 6.66165 21.2159 6.50967 21.2159 6.24369C21.2159 4.38186 19.734 2.93799 17.9101 2.93799Z" fill="#996D01"/>
<path d="M17.6406 5.86376C18.0206 5.86376 18.2866 6.16773 18.2866 6.5097C18.2866 6.77567 18.4385 6.92766 18.7045 6.92766C18.9705 6.92766 19.1225 6.77567 19.1225 6.5097C19.1225 5.67377 18.4765 5.02783 17.6406 5.02783C17.3746 5.02783 17.2227 5.17982 17.2227 5.44579C17.2227 5.71177 17.4126 5.86376 17.6406 5.86376Z" fill="#996D01"/>
<path d="M19.6943 12.8548C19.6943 12.8168 19.6943 12.7788 19.6943 12.7408C19.6943 12.7408 19.6943 12.7408 19.6943 12.7028V12.6648C19.6943 12.6268 19.6943 12.6268 19.6563 12.5888V12.5508C19.6563 12.5508 19.6563 12.5508 19.6563 12.5128L16.6546 7.34526C16.5786 7.23127 16.4646 7.15527 16.3126 7.15527H4.3437C4.19171 7.15527 4.07772 7.23127 4.00173 7.34526L1.038 12.5508C1.038 12.5508 1.038 12.5508 1.038 12.5888V12.6268C1.038 12.6648 1.038 12.6648 1 12.7028V12.7408C1 12.7408 1 12.7408 1 12.7788C1 12.8168 1 12.8548 1 12.8928C1 12.8928 1 12.8928 1 12.9308C1 12.9308 1 12.9308 1 12.9687C1 12.9687 1 13.0067 1.038 13.0067C1.038 13.0067 1.038 13.0067 1.038 13.0447C1.038 13.0447 1.038 13.0447 1.07599 13.0827L10.0812 22.9238C10.0812 22.9238 10.0812 22.9238 10.1192 22.9238L10.1572 22.9618L10.1952 22.9998H10.2332C10.2332 22.9998 10.2332 22.9998 10.2712 22.9998H10.3092C10.3472 22.9998 10.3472 22.9998 10.3852 22.9998C10.4231 22.9998 10.4231 22.9998 10.4231 22.9998H10.4611C10.4611 22.9998 10.4611 22.9998 10.4991 22.9998H10.5371L10.5751 22.9618L10.6131 22.9238C10.6131 22.9238 10.6131 22.9238 10.6511 22.9238L19.6563 13.0827C19.6563 13.0827 19.6563 13.0827 19.6943 13.0447C19.6943 13.0447 19.6943 13.0447 19.6943 13.0067V12.9687C19.6943 12.8928 19.6943 12.8928 19.6943 12.8548ZM12.8169 13.1207L10.3472 21.29L7.87738 13.1207H12.8169ZM7.99137 12.3608L10.3092 8.40916L12.6269 12.3608H7.99137ZM18.6684 12.3608H13.9948L16.3126 8.40916L18.6684 12.3608ZM13.3489 12.0188L10.9551 7.9532H15.7427L13.3489 12.0188ZM7.34543 12.0188L4.95164 7.9532H9.73921L7.34543 12.0188ZM6.66149 12.3608H2.02591L4.3437 8.40916L6.66149 12.3608ZM7.07945 13.1207L9.51123 21.062L2.21589 13.1207H7.07945ZM13.6149 13.1207H18.4784L11.1831 21.1L13.6149 13.1207Z" fill="#996D01"/>
</svg>
