<svg width="77" height="77" viewBox="0 0 77 77" fill="none" xmlns="http://www.w3.org/2000/svg">
<path d="M19.25 6.5835L9.75 19.2502V63.5835C9.75 65.2632 10.4173 66.8741 11.605 68.0618C12.7927 69.2496 14.4036 69.9168 16.0833 69.9168H60.4167C62.0964 69.9168 63.7073 69.2496 64.895 68.0618C66.0827 66.8741 66.75 65.2632 66.75 63.5835V19.2502L57.25 6.5835H19.25Z" stroke="#996D01" stroke-width="4" stroke-linecap="round" stroke-linejoin="round"/>
<path d="M9.75 19.25H66.75" stroke="#996D01" stroke-width="4" stroke-linecap="round" stroke-linejoin="round"/>
<path d="M50.9168 31.917C50.9168 35.2764 49.5823 38.4982 47.2068 40.8737C44.8314 43.2491 41.6096 44.5837 38.2502 44.5837C34.8908 44.5837 31.6689 43.2491 29.2935 40.8737C26.918 38.4982 25.5835 35.2764 25.5835 31.917" stroke="#996D01" stroke-width="4" stroke-linecap="round" stroke-linejoin="round"/>
</svg>
