<svg width="20" height="21" viewBox="0 0 20 21" fill="none" xmlns="http://www.w3.org/2000/svg">
<path d="M7.94599 10.3107C7.92828 10.3518 7.91942 10.3988 7.91942 10.4458C7.91942 10.4487 7.91647 10.4516 7.91647 10.4546C7.91647 10.4575 7.91942 10.4605 7.91942 10.4634C7.91942 10.5104 7.92828 10.5544 7.94599 10.5984C7.96369 10.6425 7.99026 10.6836 8.02567 10.7159L10.4754 13.1526C10.62 13.2965 10.8531 13.2965 10.9978 13.1526C11.1424 13.0088 11.1424 12.7768 10.9978 12.633L9.17673 10.8216L17.9631 10.8216C18.1668 10.8216 18.332 10.6572 18.332 10.4546C18.332 10.252 18.1668 10.0876 17.9631 10.0876L9.17968 10.0876L11.0007 8.2762C11.1453 8.13235 11.1453 7.90042 11.0007 7.75656C10.8561 7.61271 10.6229 7.61271 10.4783 7.75656L8.02863 10.1933C7.99321 10.2285 7.96665 10.2667 7.94599 10.3107Z" fill="#747067"/>
<path d="M13.2493 13.2377C13.0457 13.2377 12.8804 13.4021 12.8804 13.6047V17.5358C12.8804 17.847 12.6266 18.0965 12.3196 18.0995H2.96659C2.65965 18.0995 2.40582 17.8499 2.40582 17.5358V3.46438C2.40582 3.15318 2.65965 2.90364 2.96659 2.9007H12.3196C12.6266 2.9007 12.8804 3.15025 12.8804 3.46438V7.53343C12.8804 7.736 13.0457 7.90041 13.2493 7.90041C13.453 7.90041 13.6183 7.736 13.6183 7.53343V3.46438C13.6183 2.75098 13.0398 2.16968 12.3196 2.16675H2.96659C2.2494 2.16675 1.67092 2.74804 1.66797 3.46438V17.5358C1.66797 18.2492 2.24645 18.8305 2.96659 18.8334H12.3196C13.0368 18.8334 13.6183 18.2521 13.6183 17.5358V13.6047C13.6183 13.4021 13.4559 13.2377 13.2493 13.2377Z" fill="#747067"/>
</svg>
