<svg width="20" height="21" viewBox="0 0 20 21" fill="none" xmlns="http://www.w3.org/2000/svg">
<path d="M18.304 10.5985C18.3217 10.5573 18.3306 10.5104 18.3306 10.4634C18.3306 10.4605 18.3335 10.4575 18.3335 10.4546C18.3335 10.4517 18.3306 10.4487 18.3306 10.4458C18.3306 10.3988 18.3217 10.3548 18.304 10.3107C18.2863 10.2667 18.2597 10.2256 18.2243 10.1933L15.7746 7.75657C15.63 7.61272 15.3969 7.61272 15.2522 7.75657C15.1076 7.90043 15.1076 8.13236 15.2522 8.27621L17.0733 10.0876H8.2869C8.08325 10.0876 7.91797 10.252 7.91797 10.4546C7.91797 10.6572 8.08325 10.8216 8.2869 10.8216H17.0703L15.2493 12.633C15.1047 12.7768 15.1047 13.0088 15.2493 13.1526C15.3939 13.2965 15.6271 13.2965 15.7717 13.1526L18.2214 10.7159C18.2568 10.6807 18.2834 10.6425 18.304 10.5985Z" fill="#747067"/>
<path d="M13.2493 13.2377C13.0457 13.2377 12.8804 13.4021 12.8804 13.6047V17.5358C12.8804 17.847 12.6266 18.0965 12.3196 18.0995H2.96659C2.65965 18.0995 2.40582 17.8499 2.40582 17.5358V3.46438C2.40582 3.15318 2.65965 2.90364 2.96659 2.9007H12.3196C12.6266 2.9007 12.8804 3.15025 12.8804 3.46438V7.53343C12.8804 7.736 13.0457 7.90041 13.2493 7.90041C13.453 7.90041 13.6183 7.736 13.6183 7.53343V3.46438C13.6183 2.75098 13.0398 2.16968 12.3196 2.16675H2.96659C2.2494 2.16675 1.67092 2.74804 1.66797 3.46438V17.5358C1.66797 18.2492 2.24645 18.8305 2.96659 18.8334H12.3196C13.0368 18.8334 13.6183 18.2521 13.6183 17.5358V13.6047C13.6183 13.4021 13.4559 13.2377 13.2493 13.2377Z" fill="#747067"/>
</svg>
