<svg width="42" height="42" viewBox="0 0 42 42" fill="none" xmlns="http://www.w3.org/2000/svg">
<path d="M20.9507 11.9733C20.8687 11.9373 20.7749 11.9189 20.681 11.9182C20.6751 11.9182 20.6693 11.9122 20.6634 11.9122C20.6575 11.9122 20.6516 11.918 20.6458 11.918C20.5518 11.9173 20.4636 11.9344 20.3753 11.9692C20.287 12.004 20.2044 12.0565 20.1393 12.1269L12.7241 19.4093C12.4343 19.6965 12.431 20.1628 12.7167 20.4541C13.0023 20.7454 13.4661 20.7487 13.7559 20.4615L19.9116 14.4274L19.787 33.6661C19.7842 34.0733 20.1106 34.4062 20.5157 34.4091C20.9209 34.412 21.252 34.0837 21.2549 33.6765L21.3794 14.4437L26.8906 20.2427C27.1763 20.5339 27.6401 20.5372 27.9299 20.25C28.2196 19.9628 28.2229 19.4965 27.9373 19.2053L21.1844 12.1402C21.1144 12.0689 21.0385 12.0152 20.9507 11.9733Z" fill="#BEBEBE"/>
<path fill-rule="evenodd" clip-rule="evenodd" d="M36.0547 6.90949C36.0547 7.36972 35.6816 7.74281 35.2214 7.74281H5.22188C4.76165 7.74281 4.38856 7.36972 4.38856 6.90949C4.38856 6.44926 4.76165 6.07617 5.22188 6.07617H35.2214C35.6816 6.07617 36.0547 6.44926 36.0547 6.90949Z" fill="#BEBEBE"/>
</svg>
