<svg width="24" height="22" viewBox="0 0 24 22" fill="none" xmlns="http://www.w3.org/2000/svg">
<path d="M12.4631 4.85709C12.4028 4.8306 12.3338 4.81708 12.2646 4.81659C12.2603 4.81656 12.256 4.81218 12.2517 4.81215C12.2474 4.81212 12.243 4.81643 12.2387 4.8164C12.1696 4.81591 12.1047 4.82849 12.0397 4.85409C11.9747 4.87969 11.9139 4.91836 11.866 4.97015L6.40865 10.3298C6.19541 10.5411 6.19297 10.8843 6.4032 11.0987C6.61342 11.313 6.95479 11.3154 7.16804 11.1041L11.6984 6.66324L11.6067 20.8222C11.6046 21.1219 11.8449 21.3669 12.143 21.369C12.4412 21.3711 12.6849 21.1296 12.687 20.8298L12.7787 6.67525L16.8347 10.943C17.0449 11.1574 17.3863 11.1598 17.5995 10.9485C17.8128 10.7371 17.8152 10.3939 17.605 10.1796L12.6351 4.97995C12.5836 4.92746 12.5277 4.88796 12.4631 4.85709Z" fill="white"/>
<path fill-rule="evenodd" clip-rule="evenodd" d="M23.5781 1.13038C23.5781 1.46909 23.3035 1.74367 22.9648 1.74367H0.886354C0.547643 1.74367 0.273063 1.46909 0.273063 1.13038C0.273063 0.79167 0.547643 0.51709 0.886354 0.51709H22.9648C23.3035 0.51709 23.5781 0.79167 23.5781 1.13038Z" fill="white"/>
</svg>
