<svg width="34" height="24" viewBox="0 0 34 24" fill="none" xmlns="http://www.w3.org/2000/svg">
<rect x="0.5" y="0.5" width="33" height="23" rx="3.5" fill="white" stroke="#D9D9D9"/>
<path fill-rule="evenodd" clip-rule="evenodd" d="M10.751 15.8583H8.69129L7.14674 9.79247C7.07343 9.51344 6.91776 9.26676 6.68879 9.1505C6.11737 8.85833 5.4877 8.6258 4.80078 8.50853V8.27499H8.11886C8.57681 8.27499 8.92026 8.6258 8.97751 9.03323L9.77891 13.4087L11.8376 8.27499H13.8401L10.751 15.8583ZM14.985 15.8583H13.0398L14.6415 8.27499H16.5868L14.985 15.8583ZM19.1035 10.3758C19.1607 9.96738 19.5042 9.73384 19.9049 9.73384C20.5346 9.6752 21.2205 9.79248 21.7929 10.0836L22.1364 8.45091C21.5639 8.21737 20.9343 8.1001 20.3628 8.1001C18.4748 8.1001 17.101 9.1505 17.101 10.6083C17.101 11.7174 18.0741 12.2997 18.761 12.6505C19.5042 13.0003 19.7904 13.2338 19.7332 13.5836C19.7332 14.1083 19.1607 14.3419 18.5893 14.3419C17.9024 14.3419 17.2155 14.167 16.5868 13.8748L16.2433 15.5086C16.9303 15.7997 17.6734 15.917 18.3603 15.917C20.4773 15.9746 21.7929 14.9252 21.7929 13.3501C21.7929 11.3666 19.1035 11.2503 19.1035 10.3758ZM28.6008 15.8583L27.0562 8.27499H25.3972C25.0537 8.27499 24.7103 8.50853 24.5958 8.85833L21.7356 15.8583H23.7381L24.1378 14.7503H26.5983L26.8273 15.8583H28.6008ZM25.6834 10.3172L26.2548 13.1752H24.653L25.6834 10.3172Z" fill="#172B85"/>
</svg>
