<svg width="48" height="48" viewBox="0 0 48 48" fill="none" xmlns="http://www.w3.org/2000/svg">
<path d="M34.8204 22.9743C33.0749 19.8398 30.5585 17.7016 28.5949 15.2361C27.6058 14.0071 26.7404 12.698 26.1222 11.1416C25.504 9.58523 25.1113 7.77432 25.1113 5.49796C25.1113 4.99614 24.704 4.58887 24.2022 4.58887C24.1295 4.58887 24.064 4.61069 23.9986 4.6325C23.9331 4.61796 23.8676 4.58887 23.7949 4.58887C23.2931 4.58887 22.8858 4.99614 22.8858 5.49796C22.8858 8.53069 22.2022 10.7416 21.1767 12.6252C19.6495 15.4398 17.2495 17.5125 15.1258 20.1234C14.0713 21.4325 13.0895 22.8798 12.384 24.6325C11.6713 26.378 11.2422 28.4143 11.2422 30.8652C11.2422 37.7961 16.864 43.418 23.7949 43.418C23.8676 43.418 23.9331 43.3961 23.9986 43.3743C24.064 43.3889 24.1295 43.418 24.2022 43.418C31.1331 43.418 36.7549 37.7961 36.7549 30.8652C36.7549 27.5998 35.984 25.0616 34.8204 22.9743ZM31.7949 38.4507C29.8458 40.3925 27.1695 41.5925 24.2022 41.5925C24.1295 41.5925 24.064 41.6143 23.9986 41.6361C23.9331 41.6216 23.8676 41.5925 23.7949 41.5925C20.8276 41.5925 18.1513 40.3925 16.2022 38.4507C14.2604 36.5016 13.0604 33.8252 13.0604 30.858C13.0604 27.8761 13.744 25.7089 14.7695 23.8543C16.2967 21.0761 18.6967 19.0107 20.8204 16.378C21.8749 15.0616 22.8567 13.5925 23.5622 11.818C23.7222 11.418 23.8676 10.9961 23.9986 10.5598C24.3186 11.6289 24.7331 12.6034 25.2204 13.498C26.9658 16.6761 29.4822 18.8216 31.4531 21.2725C32.4422 22.4943 33.3076 23.7889 33.9258 25.3161C34.544 26.8507 34.9295 28.6252 34.9367 30.8652C34.9367 33.8252 33.7367 36.5089 31.7949 38.4507Z" fill="url(#paint0_linear_5851_41129)"/>
<path d="M30.0213 29.6655C29.5194 29.6655 29.1122 30.0728 29.1122 30.5746C29.1122 32.0437 28.5158 33.3673 27.5558 34.3346C26.5885 35.3019 25.2649 35.891 23.7958 35.891C23.294 35.891 22.8867 36.2983 22.8867 36.8001C22.8867 37.3019 23.294 37.7092 23.7958 37.7092C27.7376 37.7092 30.9304 34.5164 30.9304 30.5746C30.9304 30.0728 30.5231 29.6655 30.0213 29.6655Z" fill="url(#paint1_linear_5851_41129)"/>
<defs>
<linearGradient id="paint0_linear_5851_41129" x1="12.0705" y1="13.6658" x2="39.6991" y2="18.2887" gradientUnits="userSpaceOnUse">
<stop stop-color="#AC8118"/>
<stop offset="0.242708" stop-color="#C79A2D"/>
<stop offset="0.482292" stop-color="#AC8118"/>
<stop offset="0.576042" stop-color="#B78E2A"/>
<stop offset="0.703732" stop-color="#AC8118"/>
</linearGradient>
<linearGradient id="paint1_linear_5851_41129" x1="23.1479" y1="31.5459" x2="31.5571" y2="33.6873" gradientUnits="userSpaceOnUse">
<stop stop-color="#AC8118"/>
<stop offset="0.242708" stop-color="#C79A2D"/>
<stop offset="0.482292" stop-color="#AC8118"/>
<stop offset="0.576042" stop-color="#B78E2A"/>
<stop offset="0.703732" stop-color="#AC8118"/>
</linearGradient>
</defs>
</svg>
